<?xml version="1.0" standalone="no"?>
<!DOCTYPE svg PUBLIC "-//W3C//DTD SVG 20010904//EN"
 "http://www.w3.org/TR/2001/REC-SVG-20010904/DTD/svg10.dtd">
<svg version="1.0" xmlns="http://www.w3.org/2000/svg"
 width="1280.000000pt" height="741.000000pt" viewBox="0 0 1280.000000 741.000000"
 preserveAspectRatio="xMidYMid meet">
<g transform="translate(0.000000,741.000000) scale(0.100000,-0.100000)"
fill="#000000" stroke="none">
<path d="M11335 7350 c-22 -10 -53 -19 -68 -19 -62 -2 -128 -51 -223 -166 -58
-71 -67 -91 -59 -134 4 -20 6 -59 6 -87 -1 -36 4 -58 18 -75 11 -14 22 -46 26
-72 4 -26 11 -47 17 -47 5 0 20 -11 33 -25 19 -18 25 -35 25 -67 0 -24 7 -52
15 -62 8 -11 15 -30 15 -42 0 -27 17 -41 33 -25 20 20 53 12 65 -14 6 -14 18
-25 27 -25 8 0 17 -11 21 -25 4 -18 13 -25 30 -25 18 0 27 -9 38 -35 8 -19 22
-38 30 -41 8 -3 39 6 69 20 29 14 64 26 76 26 12 0 31 5 42 10 27 15 59 -4 59
-35 0 -29 -16 -38 -94 -56 -50 -11 -62 -18 -84 -52 -25 -37 -28 -38 -66 -33
-27 4 -63 -1 -106 -14 -36 -11 -75 -20 -87 -20 -18 0 -23 -6 -23 -25 0 -35
-24 -79 -54 -98 -14 -9 -41 -47 -60 -84 -20 -38 -56 -89 -79 -115 -47 -50 -64
-97 -92 -250 -29 -162 -70 -272 -114 -312 -19 -17 -24 -18 -48 -5 -20 11 -27
11 -30 2 -3 -8 -22 -13 -49 -13 -39 0 -49 5 -76 36 -52 59 -151 98 -286 114
-121 13 -195 62 -240 157 -19 39 -36 42 -58 8 -36 -54 -48 -34 -94 153 -9 33
-19 48 -51 68 -22 14 -50 41 -61 60 -17 30 -25 35 -52 32 -26 -3 -34 -11 -53
-49 -33 -71 -51 -72 -96 -4 -28 42 -36 109 -17 144 7 14 2 24 -23 48 -18 16
-49 40 -70 52 -20 13 -43 30 -50 39 -6 9 -32 30 -56 47 -24 16 -45 35 -48 42
-3 7 -25 22 -49 34 -25 12 -52 32 -61 45 -19 30 -34 30 -61 1 -47 -50 -14
-174 67 -252 47 -45 55 -82 19 -89 -13 -3 -54 -10 -93 -17 -38 -6 -106 -22
-150 -34 -101 -29 -211 -49 -228 -42 -8 3 -21 27 -31 54 -10 26 -20 55 -23 63
-7 16 -22 -50 -26 -110 -4 -50 -9 -55 -90 -85 -205 -77 -363 -163 -465 -253
l-64 -55 26 -14 c14 -8 26 -16 26 -19 0 -3 -12 -21 -26 -39 -14 -19 -24 -42
-22 -52 3 -16 14 -18 84 -16 65 1 116 12 271 57 105 31 200 56 211 56 12 0 26
-10 33 -21 9 -17 17 -20 43 -16 59 10 61 5 47 -155 -13 -154 -39 -386 -45
-404 -2 -6 -43 -14 -90 -17 -58 -5 -119 -19 -192 -43 -89 -31 -108 -34 -118
-23 -22 23 -46 97 -46 139 0 43 -18 56 -62 45 -16 -4 -46 3 -83 20 -32 14 -89
31 -128 37 -46 7 -71 16 -75 27 -13 36 -65 43 -82 11 -9 -17 -21 -20 -78 -20
-45 0 -81 -7 -111 -20 -24 -11 -49 -20 -55 -20 -7 0 -29 18 -50 40 -21 22 -43
40 -49 40 -6 0 -27 11 -46 24 -20 13 -60 32 -89 42 -29 10 -66 30 -83 44 -27
22 -32 36 -48 130 -19 113 -37 158 -81 205 -26 28 -29 40 -39 150 -6 66 -14
131 -16 145 -10 49 6 55 78 26 36 -14 72 -26 81 -26 9 0 36 -5 61 -12 69 -19
281 -196 307 -256 6 -15 169 -104 202 -112 72 -16 116 28 102 104 -5 26 2 50
34 118 47 98 59 177 60 393 1 119 26 314 43 331 13 13 39 -6 32 -24 -17 -40
-17 -52 0 -59 13 -4 24 2 37 20 26 36 59 35 119 -4 52 -33 92 -35 97 -6 2 11
10 26 18 35 76 87 85 124 45 179 -16 21 -40 49 -55 62 -14 14 -26 29 -26 35 1
6 38 57 83 113 45 56 160 199 256 317 114 141 180 216 192 216 21 0 25 20 7
38 -19 19 -26 15 -46 -27 -34 -69 -161 -229 -303 -380 -75 -80 -149 -161 -164
-178 -32 -39 -59 -42 -115 -13 -55 28 -82 25 -122 -12 -19 -18 -55 -45 -80
-59 -43 -25 -45 -29 -57 -90 -26 -135 -92 -302 -196 -487 -28 -51 -35 -75 -35
-117 0 -58 -16 -105 -35 -105 -22 0 -82 29 -111 53 -16 14 -54 37 -84 52 -83
41 -117 71 -125 107 -18 83 -66 139 -207 239 -66 47 -108 70 -130 72 -57 4
-212 -14 -251 -29 -53 -20 -77 -18 -77 5 0 11 6 23 13 28 8 5 2 9 -17 13 -38
7 -44 26 -11 34 14 4 25 13 25 21 0 16 9 19 49 15 18 -1 22 2 18 14 -4 9 -2
16 3 16 6 0 10 7 10 16 0 11 -5 14 -16 10 -9 -3 -20 -6 -25 -6 -5 0 -9 -7 -9
-15 0 -8 -7 -15 -15 -15 -8 0 -15 4 -15 9 0 5 -16 15 -36 21 -30 10 -35 16
-30 34 3 11 6 27 6 35 0 10 9 12 38 6 36 -6 36 -6 15 10 -13 9 -23 25 -23 36
0 16 4 19 22 13 38 -12 -42 74 -97 104 -56 31 -75 56 -58 73 9 9 23 9 52 1 23
-5 41 -6 41 -2 0 20 -81 73 -155 102 -83 32 -78 32 -270 25 -33 -1 -63 -7 -68
-14 -4 -6 -44 -31 -89 -55 -45 -24 -103 -65 -130 -91 -27 -27 -77 -62 -113
-79 l-65 -30 17 -29 c14 -24 15 -33 5 -49 -18 -29 -15 -38 21 -71 27 -25 29
-31 17 -39 -8 -5 -30 -10 -48 -10 -32 0 -33 -1 -27 -31 4 -17 1 -51 -5 -75 -9
-32 -10 -51 -2 -68 9 -21 19 -23 102 -29 105 -7 140 -27 140 -79 0 -37 -70
-89 -192 -143 -67 -30 -99 -50 -122 -78 -28 -36 -31 -46 -35 -125 -2 -66 -8
-92 -22 -111 -11 -13 -19 -29 -19 -36 0 -27 -121 -256 -156 -295 -43 -47 -120
-90 -161 -90 -62 1 -112 35 -208 141 -43 47 -67 63 -156 103 -121 54 -168 95
-219 191 -24 46 -30 68 -26 95 24 157 25 183 11 218 -8 19 -15 45 -15 58 0 20
6 23 53 28 266 27 380 39 487 52 69 8 154 14 190 12 64 -3 65 -2 65 22 0 32
-38 40 -67 14 -20 -19 -27 -20 -488 -59 -278 -23 -254 -27 -289 50 -16 36 -35
65 -41 65 -20 0 -22 -29 -5 -74 9 -24 14 -49 10 -55 -12 -21 -33 -11 -44 21
-12 33 -48 78 -63 78 -12 0 -10 -25 6 -55 28 -54 15 -60 -208 -79 -93 -8 -131
-15 -134 -25 -4 -11 18 -12 134 -5 215 13 219 12 222 -12 4 -31 -20 -47 -51
-33 -22 10 -33 8 -78 -15 -29 -14 -59 -26 -65 -26 -7 0 -16 -5 -20 -11 -5 -9
11 -11 59 -7 83 7 86 -4 16 -56 -38 -28 -48 -41 -40 -49 9 -9 25 -5 65 17 33
18 60 26 71 22 18 -6 18 -13 -1 -118 -10 -62 0 -81 61 -111 42 -20 60 -36 70
-61 17 -41 41 -69 127 -153 111 -108 104 -126 -49 -137 -176 -12 -270 -48
-313 -119 -28 -45 -25 -86 10 -139 80 -121 331 -245 633 -314 68 -16 78 -21
84 -43 4 -14 1 -375 -6 -801 -6 -426 -11 -832 -11 -901 l0 -125 -34 -16 c-37
-18 -8 50 -307 -710 -70 -176 -100 -240 -128 -271 -34 -38 -35 -40 -16 -54 14
-10 36 -13 73 -10 65 5 75 14 60 53 -10 27 -5 44 42 159 28 71 67 172 85 224
51 147 174 444 190 460 8 8 17 13 20 10 13 -13 26 -163 31 -354 6 -182 4 -216
-11 -255 -29 -78 -29 -82 -10 -96 11 -8 30 -14 44 -14 36 0 91 36 91 58 0 13
-11 22 -32 28 l-33 10 -6 309 c-4 171 -3 314 1 318 4 4 11 2 17 -5 17 -21 383
-818 383 -833 0 -8 -4 -17 -10 -20 -6 -3 -10 -15 -10 -25 0 -25 36 -35 97 -26
72 10 97 42 48 64 -26 12 -78 108 -170 312 -55 124 -153 333 -241 516 -52 110
-68 135 -98 152 l-36 21 0 921 0 920 45 0 c79 0 300 -22 309 -31 15 -13 -12
-119 -85 -342 -38 -114 -69 -221 -69 -238 0 -45 113 -154 205 -198 95 -45 262
-99 349 -113 97 -15 96 -14 96 -45 -1 -51 -48 -287 -74 -373 -42 -133 -76
-362 -76 -505 0 -82 30 -270 58 -370 23 -84 44 -121 134 -242 178 -238 418
-375 728 -413 119 -14 398 -12 505 4 168 26 314 105 463 250 216 210 322 480
322 821 0 175 -25 313 -77 426 -44 97 -42 109 37 267 76 150 116 212 136 212
9 0 59 18 110 41 84 37 102 50 169 121 49 52 81 78 92 76 10 -2 30 -26 45 -53
23 -41 28 -63 28 -120 0 -45 -5 -78 -14 -91 -8 -11 -49 -123 -91 -249 -43
-127 -82 -239 -88 -250 -18 -34 -195 -220 -257 -270 -64 -51 -65 -52 -51 -74
7 -11 31 6 107 77 87 82 134 111 134 82 0 -15 -45 -147 -78 -230 -58 -145 -90
-217 -181 -404 -50 -104 -91 -193 -91 -198 0 -5 33 -8 73 -6 l72 3 -3 60 c-6
101 22 194 158 528 48 115 55 127 77 127 39 0 104 -22 110 -37 3 -8 -2 -51
-10 -96 -36 -182 -34 -212 13 -200 14 4 18 19 23 81 5 84 32 189 52 211 16 17
54 6 57 -17 2 -21 2 -13 -11 -201 -7 -86 -14 -171 -17 -188 -6 -30 -4 -33 18
-33 25 0 25 1 36 143 11 143 17 177 32 177 12 0 16 -18 40 -180 18 -119 21
-177 19 -332 l-4 -188 42 0 c51 0 49 -11 23 165 -14 93 -22 212 -26 422 -7
274 -6 294 11 313 10 11 22 20 26 20 4 0 26 -26 48 -57 28 -39 41 -69 41 -90
0 -36 19 -44 41 -17 12 15 15 14 31 -6 20 -24 59 -144 78 -235 18 -90 15 -85
50 -72 21 8 29 17 26 27 -3 8 -19 53 -36 99 -37 102 -83 283 -105 411 -29 178
-109 533 -140 619 -8 24 -15 65 -15 91 0 47 -20 80 -50 80 -10 0 -11 21 -6
103 15 213 12 203 92 268 39 32 83 74 98 93 l27 36 -80 157 c-51 98 -81 169
-81 188 0 18 7 76 15 131 8 54 20 182 26 284 11 190 18 230 43 230 7 0 38 25
67 55 46 47 65 59 124 77 39 12 103 36 144 55 87 39 98 40 148 11 21 -13 56
-27 78 -33 28 -7 41 -16 43 -30 8 -58 13 -64 50 -74 20 -6 49 -11 64 -11 31 0
41 -12 42 -51 1 -16 3 -30 6 -31 3 -2 34 6 69 17 63 19 65 19 75 0 6 -10 31
-42 56 -70 25 -27 92 -111 148 -185 57 -74 126 -165 155 -201 149 -190 217
-279 252 -331 21 -32 41 -58 45 -58 15 0 62 -123 62 -165 1 -58 -48 -160 -77
-160 -12 0 -25 11 -33 28 -13 26 -16 27 -86 27 -68 0 -74 -2 -80 -22 -12 -47
-5 -112 20 -186 30 -90 25 -117 -31 -192 -74 -99 -193 -266 -205 -290 -16 -32
-88 -117 -141 -167 -41 -39 -149 -227 -149 -260 0 -10 -9 -35 -20 -56 -38 -71
-15 -177 50 -225 33 -25 64 -79 75 -132 15 -69 55 -152 106 -217 28 -36 66
-95 84 -132 19 -36 70 -113 114 -171 140 -181 247 -323 275 -367 42 -63 85
-177 101 -267 7 -45 19 -103 25 -129 5 -26 9 -83 8 -125 -2 -81 4 -102 28
-102 8 0 14 -2 14 -5 0 -2 -44 -47 -97 -99 -103 -102 -98 -100 -228 -111 -66
-6 -95 -17 -95 -36 0 -5 100 -9 223 -9 l222 0 30 34 c18 21 44 37 63 41 30 6
37 3 73 -35 37 -39 42 -41 91 -38 39 2 53 8 62 23 6 11 21 37 35 57 19 30 22
46 17 77 -5 34 -3 41 14 46 22 7 25 25 11 53 -5 9 -17 58 -26 107 -26 145 -68
280 -148 470 -57 138 -88 196 -167 315 -32 47 -67 104 -79 128 -34 67 -146
236 -184 279 -19 21 -56 66 -83 100 -27 34 -82 99 -122 145 -92 105 -112 148
-112 234 l0 66 79 92 c83 97 128 140 231 221 77 60 187 135 200 135 11 0 17
-21 26 -95 9 -75 46 -188 80 -238 17 -27 43 -47 82 -65 50 -24 69 -27 155 -26
94 0 100 1 178 42 44 23 84 40 89 37 9 -6 13 -25 51 -250 17 -99 41 -223 54
-276 14 -52 33 -159 44 -236 20 -138 22 -145 87 -275 89 -178 119 -226 254
-407 337 -451 559 -817 591 -972 6 -30 18 -83 26 -118 12 -46 14 -91 11 -166
l-6 -103 29 -13 c41 -16 31 -33 -22 -37 -52 -4 -71 -19 -144 -118 -56 -75 -99
-103 -192 -125 -27 -7 -54 -13 -61 -15 -15 -4 -33 -46 -23 -56 3 -4 69 1 146
10 77 9 184 16 238 16 l97 -1 0 33 c0 17 8 42 18 54 26 32 62 21 102 -30 30
-38 34 -40 90 -40 l58 0 7 39 c3 21 1 75 -5 120 -15 98 -11 111 32 111 18 0
38 4 44 8 17 11 -3 137 -31 192 -13 25 -30 71 -39 101 -47 164 -102 302 -224
559 -27 58 -58 128 -68 155 -19 50 -55 120 -179 340 -68 121 -162 255 -246
352 -25 29 -61 81 -79 115 -19 35 -42 75 -53 89 -20 29 -63 124 -77 174 -37
129 -41 205 -39 766 1 343 -3 592 -10 654 -6 55 -14 218 -17 362 -8 286 -7
293 47 293 30 0 31 -1 59 -116 5 -22 19 -49 30 -59 21 -19 14 -22 89 32 36 26
241 32 308 9 61 -22 207 -32 253 -18 19 6 76 27 125 48 67 28 104 38 145 38
60 0 65 3 80 58 9 33 7 44 -25 106 -19 38 -35 75 -35 81 0 7 -10 31 -21 54
-20 38 -21 52 -16 177 7 192 -9 583 -27 645 -8 28 -27 84 -42 125 -20 57 -30
108 -38 207 -8 109 -13 134 -26 138 -10 3 -22 17 -28 30 -10 21 -18 25 -55 25
-37 0 -48 6 -82 40 -21 22 -47 40 -58 40 -33 0 -74 29 -87 62 -19 47 -39 68
-66 68 -18 0 -25 7 -30 28 -7 29 -35 122 -38 122 0 0 -35 -9 -76 -20 -41 -11
-82 -20 -91 -20 -15 0 -71 78 -83 117 -7 20 22 63 42 63 6 0 16 -8 22 -17 9
-15 10 -12 8 17 -3 32 -1 35 22 31 l25 -3 -27 26 c-33 30 -37 50 -7 41 20 -7
20 -6 4 25 -9 17 -13 39 -10 49 3 10 0 30 -6 44 -9 20 -8 35 7 74 10 26 24 52
31 56 10 6 7 17 -12 47 -14 22 -25 44 -25 49 0 5 -13 14 -29 21 -52 21 -78 62
-84 136 -1 12 -25 40 -56 65 -96 78 -82 74 -240 76 -122 1 -152 -2 -186 -17z
m-4787 -1011 c41 -19 44 -23 27 -30 -11 -4 -36 -8 -56 -8 -19 -1 -59 -8 -88
-17 -48 -14 -55 -14 -77 1 -30 20 -31 43 -1 49 12 2 42 9 67 14 68 14 77 14
128 -9z m122 -3 c0 -3 -4 -8 -10 -11 -5 -3 -10 -1 -10 4 0 6 5 11 10 11 6 0
10 -2 10 -4z m-2080 -187 c0 -20 -21 -49 -35 -49 -15 0 -21 40 -8 53 10 11 43
8 43 -4z m5135 -309 c7 -12 -12 -40 -26 -40 -10 0 -12 34 -2 43 9 10 21 9 28
-3z m-275 -80 c0 -5 -4 -10 -10 -10 -5 0 -10 5 -10 10 0 6 5 10 10 10 6 0 10
-4 10 -10z m-3518 -207 c14 -16 58 -73 97 -128 121 -168 193 -231 297 -256 97
-24 123 -48 86 -82 -16 -15 -29 -15 -147 -1 -170 19 -174 20 -168 43 5 21 -20
35 -49 25 -13 -4 -17 -11 -13 -24 7 -22 -4 -26 -103 -34 -34 -3 -74 -9 -87
-12 -20 -5 -27 -1 -35 20 -5 15 -17 26 -28 26 -10 0 -39 14 -65 30 -26 17 -70
41 -97 55 -27 13 -51 29 -55 35 -12 20 35 78 113 138 42 33 106 90 142 126 35
36 69 66 75 66 6 0 23 -12 37 -27z m6318 -217 c0 -42 31 -132 63 -183 38 -60
57 -110 73 -191 15 -80 13 -92 -17 -92 -15 0 -19 -7 -19 -36 0 -35 -1 -36 -30
-30 -22 4 -32 1 -36 -9 -4 -8 -16 -15 -29 -15 -13 0 -30 -10 -39 -25 -19 -28
-71 -34 -109 -13 -14 8 -92 14 -212 18 l-190 5 -3 27 c-3 21 3 30 25 42 15 8
50 37 77 65 27 27 76 63 110 80 123 62 201 155 294 354 24 53 42 54 42 3z
m-1946 -190 c33 -18 97 -55 141 -80 44 -26 98 -51 120 -57 22 -6 46 -16 53
-21 22 -18 14 -89 -18 -152 -17 -32 -30 -65 -30 -72 0 -18 -30 -18 -57 1 -24
17 -98 107 -219 265 -95 124 -97 127 -89 140 11 17 35 11 99 -24z m-3205 -476
c37 -22 74 -40 82 -40 23 0 59 -30 59 -49 0 -17 -13 -18 -167 -18 -93 0 -197
-5 -232 -12 -34 -7 -66 -10 -69 -6 -7 6 94 98 151 138 56 38 94 35 176 -13z
m1543 -531 c-1 -46 -7 -88 -12 -93 -5 -5 -23 21 -44 62 -38 76 -37 79 19 110
35 20 40 8 37 -79z m97 -409 c5 -30 19 -97 30 -148 30 -137 54 -313 44 -322
-21 -20 -53 -20 -71 -2 -23 23 -29 74 -38 323 -9 231 6 297 35 149z m-199 -17
c0 -26 -33 -242 -39 -258 -10 -24 -77 -63 -88 -51 -15 14 97 316 117 316 5 0
10 -3 10 -7z m48 -474 c-16 -122 -28 -153 -49 -132 -8 8 -9 46 -4 127 6 102
10 118 28 131 37 26 42 4 25 -126z m-118 79 c0 -53 -27 -180 -40 -188 -12 -7
-76 3 -87 14 -6 5 26 139 36 154 8 10 74 52 84 52 4 0 7 -15 7 -32z m398 -190
c14 -54 1 -68 -27 -30 -21 31 -26 53 -14 65 16 17 31 4 41 -35z"/>
<path d="M2575 7351 c-16 -5 -55 -19 -85 -33 -31 -14 -72 -28 -92 -32 -20 -3
-39 -13 -42 -21 -3 -8 -24 -19 -48 -26 -24 -6 -61 -20 -82 -31 -38 -19 -39
-21 -21 -34 18 -13 17 -16 -17 -52 -28 -28 -35 -43 -31 -63 4 -21 -3 -32 -40
-62 -25 -20 -50 -37 -55 -37 -5 0 -15 -7 -22 -15 -10 -13 -10 -19 5 -35 13
-14 15 -27 10 -47 -15 -57 -18 -92 -9 -144 4 -24 0 -47 -10 -67 -9 -17 -16
-45 -16 -61 0 -29 2 -30 26 -21 46 18 57 13 51 -20 -6 -28 -5 -29 19 -18 21
10 27 8 44 -10 11 -12 20 -28 20 -37 0 -8 9 -15 20 -15 12 0 20 -7 20 -16 0
-27 -71 -181 -92 -200 -19 -18 -21 -17 -61 4 -23 12 -47 22 -54 22 -7 0 -40
-17 -75 -37 -55 -33 -73 -38 -138 -41 -74 -4 -76 -3 -136 37 -34 23 -66 41
-71 41 -23 0 -71 -32 -81 -54 -8 -18 -22 -27 -49 -32 -67 -12 -126 -44 -221
-117 -222 -171 -260 -199 -322 -231 -36 -18 -83 -39 -105 -46 -22 -7 -53 -20
-70 -30 -16 -9 -59 -27 -95 -39 -235 -77 -290 -93 -349 -101 -76 -10 -115 -25
-191 -74 -75 -48 -110 -76 -110 -87 0 -5 15 -32 33 -61 17 -28 43 -86 57 -127
24 -74 26 -77 76 -100 56 -26 75 -51 93 -125 7 -26 25 -75 41 -107 17 -32 30
-67 30 -78 0 -11 -15 -73 -34 -139 -73 -252 -106 -502 -87 -658 32 -256 125
-422 280 -493 197 -91 453 -100 706 -25 132 39 153 50 269 137 43 32 85 56 92
53 9 -3 14 -20 14 -45 0 -50 36 -331 55 -431 8 -41 26 -140 40 -220 15 -80 37
-192 50 -250 13 -58 29 -145 35 -195 7 -49 20 -141 31 -203 21 -127 24 -257 8
-316 -17 -62 -105 -141 -228 -205 -71 -37 -142 -85 -226 -155 -214 -177 -339
-278 -420 -336 -34 -25 -88 -68 -121 -95 -136 -116 -212 -168 -286 -196 l-60
-22 6 -36 c3 -20 9 -56 12 -80 l7 -44 -41 5 c-47 7 -52 3 -81 -65 l-21 -48 35
-20 c40 -24 50 -47 34 -83 -14 -30 -38 -40 -78 -31 -27 6 -31 2 -59 -47 -44
-78 -98 -265 -117 -410 -19 -139 -17 -161 17 -156 19 2 24 11 29 48 17 116 99
226 214 287 76 40 103 69 155 165 23 43 45 78 50 78 4 0 15 -11 24 -25 9 -14
22 -25 30 -25 7 0 57 51 112 113 54 63 109 125 120 138 12 13 50 47 84 74 34
28 94 78 133 112 208 178 653 488 831 578 22 11 86 65 142 121 l102 101 7 74
c4 41 6 263 4 494 -3 422 10 829 32 955 15 85 58 256 76 298 7 17 18 32 23 32
19 0 80 -69 116 -130 39 -67 104 -148 205 -257 73 -79 187 -227 241 -313 52
-81 179 -332 221 -435 20 -49 52 -128 71 -175 30 -71 36 -97 36 -160 0 -134
-34 -354 -110 -710 -74 -346 -90 -469 -91 -681 0 -169 7 -232 42 -371 10 -42
19 -99 19 -127 0 -55 1 -55 62 -51 15 1 37 -2 49 -5 23 -8 23 -3 -1 -134 -5
-30 -7 -58 -4 -63 3 -4 39 -8 79 -8 68 0 76 2 91 25 25 38 61 33 80 -10 8 -20
22 -35 32 -36 194 -6 373 -19 390 -28 31 -17 192 -15 192 3 0 22 -25 36 -81
45 -126 21 -162 34 -211 78 -36 31 -147 92 -198 108 -14 4 -43 19 -64 33 l-40
25 27 21 27 21 -30 79 c-69 187 -69 287 5 706 14 80 30 183 34 230 5 47 19
157 30 245 41 327 51 424 51 496 0 136 -47 342 -133 589 -76 216 -122 320
-299 675 -85 171 -170 344 -188 385 -18 41 -70 156 -115 255 -82 178 -110 260
-99 288 4 11 34 16 121 21 105 7 118 6 142 -12 14 -10 28 -32 32 -49 10 -51
110 -243 154 -297 23 -29 50 -64 59 -79 22 -33 51 -35 76 -4 93 109 115 139
141 184 16 28 35 53 42 56 7 2 39 2 72 -1 43 -3 71 1 100 13 64 27 136 45 188
45 45 0 49 2 63 35 7 19 14 56 14 82 0 26 4 54 9 62 10 15 251 37 305 27 40
-8 69 -38 85 -88 7 -21 16 -40 21 -43 5 -3 29 0 55 7 38 10 48 10 54 -1 7 -11
10 -9 15 6 10 32 146 72 168 50 10 -12 15 -10 30 8 26 34 138 60 152 36 3 -5
23 0 43 10 21 10 49 19 64 19 26 0 27 3 34 66 4 39 3 70 -3 76 -5 5 -35 13
-66 17 -31 4 -61 12 -67 18 -5 5 -32 8 -58 5 -53 -5 -141 26 -141 50 0 9 -5 8
-16 -4 -13 -13 -23 -14 -57 -5 -23 5 -55 19 -72 31 -41 29 -142 32 -151 4 -15
-50 -16 -50 -571 -51 -465 -2 -521 0 -543 14 -19 13 -37 51 -73 157 l-49 140
-8 258 c-4 143 -13 275 -19 294 -7 19 -18 87 -26 150 -13 105 -13 133 1 227 4
25 1 33 -16 38 -16 5 -20 15 -20 45 0 47 -23 64 -75 54 -19 -3 -47 -3 -61 0
-24 6 -26 10 -20 46 6 37 5 39 -50 75 -50 34 -63 37 -137 41 -95 4 -171 24
-175 46 -2 9 8 28 21 44 l24 28 38 -18 c51 -25 89 -13 93 29 4 31 47 80 72 80
8 0 16 10 18 23 5 32 25 37 62 16 44 -27 62 -11 77 67 17 85 30 106 70 121 21
8 36 21 39 35 3 12 12 27 20 34 8 6 11 16 8 21 -10 16 6 78 21 78 10 0 12 10
8 41 -5 35 -3 41 16 46 22 6 23 9 19 112 -3 97 -6 110 -32 152 -34 54 -76 85
-133 97 -24 6 -62 27 -90 50 -26 22 -68 49 -93 61 -25 11 -56 29 -70 41 -28
22 -100 33 -145 21z m-1080 -1751 c4 -6 -4 -100 -16 -210 -22 -194 -22 -203
-6 -288 18 -96 21 -132 10 -132 -4 0 -48 20 -98 45 -148 75 -393 122 -532 104
-60 -7 -196 -43 -245 -64 -12 -5 -25 2 -42 20 -34 36 -106 169 -106 194 0 11
-4 23 -10 26 -5 3 -10 13 -10 22 0 11 7 14 26 10 18 -3 22 -1 15 6 -16 16 -13
27 5 27 10 0 14 6 11 15 -4 9 6 23 26 37 30 21 40 23 157 20 142 -3 291 11
365 35 28 9 86 35 130 58 76 41 150 69 205 78 50 8 109 7 115 -3z m1359 -637
c28 -56 106 -346 97 -361 -8 -14 -256 -27 -264 -15 -8 13 58 242 96 331 17 39
37 72 44 72 7 0 19 -12 27 -27z m933 -640 c8 -21 -42 -65 -70 -61 -30 4 -32
24 -3 53 29 29 64 33 73 8z m111 -19 c3 -33 -18 -64 -44 -64 -23 0 -26 23 -9
64 20 46 48 46 53 0z m-248 3 c0 -23 -17 -47 -32 -47 -11 0 -10 28 2 51 14 26
30 24 30 -4z"/>
<path d="M6695 6814 c21 -15 49 -19 41 -5 -3 5 -18 11 -33 14 -26 5 -26 4 -8
-9z"/>
<path d="M6780 6425 c-8 -9 -8 -15 -2 -15 18 0 42 12 42 21 0 14 -26 10 -40
-6z"/>
<path d="M9220 6434 c0 -16 23 -44 35 -44 20 0 19 13 -3 33 -19 17 -32 22 -32
11z"/>
<path d="M9320 6351 c0 -5 7 -17 16 -25 17 -17 34 -21 34 -8 0 10 -33 42 -43
42 -4 0 -7 -4 -7 -9z"/>
<path d="M9430 6272 c0 -24 13 -42 32 -42 11 0 18 5 16 12 -6 16 -48 43 -48
30z"/>
<path d="M9528 6194 c-12 -11 5 -44 23 -44 11 0 19 4 19 8 0 13 -36 43 -42 36z"/>
<path d="M4440 4744 c0 -16 57 -35 84 -28 41 10 41 24 -1 24 -21 0 -48 3 -60
6 -13 4 -23 2 -23 -2z"/>
<path d="M4630 4684 c0 -3 6 -12 14 -20 18 -18 26 -18 26 0 0 8 -7 17 -16 20
-19 7 -24 8 -24 0z"/>
<path d="M4840 4635 c12 -15 30 -12 30 6 0 5 -10 9 -21 9 -18 0 -19 -2 -9 -15z"/>
<path d="M4841 4269 c-35 -14 -23 -17 34 -9 28 4 42 8 33 9 -9 0 -22 3 -30 5
-7 3 -24 0 -37 -5z"/>
<path d="M4691 4252 c-6 -12 -19 -22 -28 -22 -9 0 -14 -3 -11 -6 3 -3 19 -2
36 3 24 6 28 12 22 28 -7 19 -7 19 -19 -3z"/>
<path d="M4500 4205 c0 -18 -6 -29 -20 -32 -11 -3 -17 -9 -14 -14 7 -12 61
-11 69 1 3 6 1 10 -4 10 -6 0 -11 11 -11 24 0 14 -4 28 -10 31 -6 4 -10 -5
-10 -20z"/>
</g>
</svg>
