<?xml version="1.0" standalone="no"?>
<!DOCTYPE svg PUBLIC "-//W3C//DTD SVG 20010904//EN"
 "http://www.w3.org/TR/2001/REC-SVG-20010904/DTD/svg10.dtd">
<svg version="1.0" xmlns="http://www.w3.org/2000/svg"
 width="1280.000000pt" height="1032.000000pt" viewBox="0 0 1280.000000 1032.000000"
 preserveAspectRatio="xMidYMid meet">
<metadata>
Created by potrace 1.15, written by Peter Selinger 2001-2017
</metadata>
<g transform="translate(0.000000,1032.000000) scale(0.100000,-0.100000)"
fill="#000000" stroke="none">
<path d="M9037 10309 c-17 -10 -18 -21 -12 -118 6 -92 5 -113 -10 -145 -14
-29 -16 -50 -11 -94 4 -31 11 -91 16 -132 5 -44 20 -100 36 -135 27 -58 28
-66 32 -270 5 -238 -7 -401 -49 -689 l-28 -199 -51 -76 c-27 -42 -73 -101
-101 -131 -48 -53 -55 -53 -18 0 15 21 16 35 9 95 -27 221 -42 252 -178 383
-59 57 -118 108 -131 113 -42 17 -123 14 -161 -6 -80 -41 -116 -81 -155 -172
l-37 -88 4 -157 3 -157 -55 -56 c-68 -70 -343 -249 -500 -326 -64 -31 -130
-68 -146 -82 -27 -23 -134 -218 -134 -245 0 -5 10 -21 23 -35 12 -15 32 -39
44 -55 14 -19 50 -40 107 -63 47 -19 86 -38 86 -44 0 -5 -11 -45 -25 -87 -56
-176 -69 -268 -69 -493 -1 -235 11 -325 70 -527 77 -264 197 -476 373 -658 59
-61 71 -78 71 -107 0 -18 16 -73 36 -121 19 -48 47 -139 61 -202 23 -103 26
-146 32 -400 6 -260 9 -289 28 -331 37 -80 132 -401 143 -482 17 -130 16 -133
-55 -232 -36 -51 -72 -114 -82 -145 -15 -45 -24 -58 -52 -72 -19 -9 -41 -24
-49 -31 -17 -18 -60 -138 -55 -154 2 -6 37 -23 78 -38 l74 -27 128 21 c70 12
169 32 218 46 50 13 108 28 131 34 l41 11 -13 87 c-38 251 -54 461 -54 692 l1
236 50 35 50 35 -5 90 c-16 232 -17 349 -7 445 6 57 13 105 15 107 2 2 29 -7
60 -21 38 -17 56 -31 56 -43 0 -10 18 -94 40 -188 23 -93 43 -195 45 -225 6
-70 30 -255 57 -433 27 -184 22 -280 -21 -407 -18 -52 -33 -102 -33 -110 -1
-8 13 -60 31 -116 l32 -101 119 -100 119 -101 78 15 c149 28 186 38 197 55 23
37 -32 224 -84 288 -11 14 -40 74 -64 133 l-43 108 23 117 c12 64 27 140 32
167 6 28 22 90 37 138 25 80 33 92 108 172 l80 86 -11 112 c-6 62 -9 113 -7
115 1 2 141 -57 311 -131 308 -134 498 -210 819 -327 218 -80 377 -156 439
-211 139 -123 190 -294 251 -849 75 -692 108 -882 196 -1160 88 -276 204 -520
424 -895 231 -392 524 -896 615 -1055 114 -201 109 -193 125 -180 14 12 -128
267 -562 1005 -325 552 -371 637 -458 841 -145 339 -213 627 -270 1147 -70
640 -95 802 -145 938 -36 100 -76 163 -139 222 -94 88 -147 113 -586 277 -318
119 -409 156 -780 317 l-250 109 -7 55 c-4 30 -12 155 -17 279 -5 124 -25 376
-45 560 -46 446 -46 428 -12 473 l28 37 -40 94 c-71 164 -100 288 -113 470 -6
88 -27 312 -46 496 -39 371 -39 370 9 625 20 111 32 217 38 345 5 102 16 246
25 320 13 113 14 178 5 410 -5 151 -15 349 -21 440 -8 115 -8 181 -1 215 5 28
7 74 2 105 -9 67 0 100 44 169 40 61 38 81 -8 81 -18 0 -59 5 -90 12 -46 9
-60 16 -67 35 -12 33 -35 39 -77 18 -21 -9 -39 -17 -42 -16 -8 2 -19 49 -29
119 -15 98 -44 130 -94 101z m-1347 -2909 c10 -6 78 -19 151 -30 72 -11 133
-21 134 -22 12 -16 56 -134 64 -175 24 -121 33 -424 22 -803 -6 -206 -15 -397
-21 -425 -7 -31 -9 -100 -6 -180 l6 -130 -70 75 c-353 377 -501 1019 -358
1555 23 86 45 145 54 145 3 0 14 -5 24 -10z m1126 -1951 c2 -46 13 -130 23
-186 10 -57 15 -103 12 -102 -3 0 -27 10 -52 22 l-46 22 22 165 c25 186 23
175 30 168 3 -3 8 -43 11 -89z"/>
<path d="M5615 10237 c-92 -44 -148 -98 -193 -184 -60 -116 -82 -205 -82 -338
0 -160 30 -261 95 -321 52 -47 52 -44 -5 -129 -15 -22 -36 -60 -48 -85 l-21
-45 -110 -17 c-61 -10 -127 -26 -148 -37 -67 -34 -126 -112 -154 -201 -16 -53
-17 -68 -4 -204 16 -165 13 -198 -35 -321 -99 -254 -141 -580 -109 -863 32
-296 142 -634 295 -906 l55 -98 -32 -217 c-28 -191 -37 -230 -79 -343 l-47
-126 -9 -179 c-5 -98 -7 -270 -6 -383 3 -185 5 -212 27 -275 13 -38 33 -107
46 -153 16 -59 33 -97 59 -130 20 -26 93 -130 162 -232 l125 -185 7 -90 c4
-50 14 -131 22 -182 l15 -91 -49 -79 c-216 -345 -498 -673 -683 -795 -280
-185 -757 -364 -2184 -819 -1099 -350 -1451 -469 -1775 -596 -322 -126 -600
-282 -570 -318 9 -11 22 -6 68 29 221 167 634 322 2165 811 507 161 994 318
1082 348 704 241 1098 410 1285 551 170 128 417 381 564 579 60 80 72 90 61
58 -3 -10 -6 -43 -7 -72 -1 -51 2 -59 61 -142 35 -48 67 -90 72 -93 16 -10 99
-6 128 5 29 13 81 92 101 156 7 22 21 62 31 89 21 54 24 95 10 144 -9 30 -4
44 44 135 60 113 91 228 82 303 -2 26 -23 75 -49 121 -24 43 -54 103 -66 134
l-23 55 40 140 c79 278 84 309 85 454 1 185 -33 315 -131 501 l-34 67 24 73
c14 41 35 110 47 154 12 44 38 113 58 154 32 66 37 72 43 50 4 -13 33 -107 64
-209 52 -171 58 -199 75 -375 29 -305 46 -693 33 -762 -6 -32 -34 -179 -62
-327 -28 -148 -70 -341 -92 -430 -53 -212 -69 -308 -69 -441 0 -60 -7 -139
-15 -175 -23 -104 -20 -121 29 -187 55 -73 67 -98 60 -116 -9 -24 21 -70 73
-113 l47 -39 141 -5 c174 -6 238 3 265 37 38 48 16 153 -48 231 -51 60 -56 79
-37 132 19 53 19 96 1 148 l-14 40 39 38 c21 21 58 74 81 118 l43 81 0 185 c1
137 5 202 17 250 27 108 65 354 119 770 43 335 50 410 44 491 -3 53 -1 207 5
342 8 173 9 271 1 333 -10 90 -22 269 -41 629 -6 110 -13 236 -16 280 l-5 80
31 -79 c40 -106 54 -115 101 -65 19 21 40 67 65 142 30 95 35 123 32 184 -2
50 -8 77 -21 91 -17 18 -16 21 19 72 20 29 59 99 87 156 50 104 50 105 38 157
-12 52 -18 66 -58 128 -32 48 -33 162 -2 195 l21 23 -41 106 c-36 92 -42 119
-46 203 -8 177 -66 451 -109 515 -19 28 -42 39 -201 95 -99 35 -234 77 -300
93 -172 44 -165 37 -165 167 0 124 16 185 64 246 l31 38 -3 115 c-3 104 -7
123 -42 217 -22 57 -53 135 -71 174 l-31 71 -72 30 c-102 42 -195 69 -263 76
-49 5 -66 2 -108 -18z m-643 -2097 c25 -60 32 -62 232 -83 15 -2 26 -25 53
-117 18 -63 34 -137 36 -165 3 -84 -42 -460 -79 -647 -27 -139 -35 -210 -39
-340 -3 -89 -9 -179 -13 -198 l-8 -35 -46 85 c-172 316 -266 657 -275 998 -7
243 15 417 79 612 30 93 32 94 39 5 3 -44 13 -96 21 -115z m819 -2639 c71
-166 84 -226 84 -396 0 -111 -5 -167 -18 -215 -32 -119 -92 -310 -97 -310 -9
1 -108 263 -120 318 -14 61 -9 111 18 197 18 55 29 143 48 385 7 96 19 139 35
123 5 -5 28 -51 50 -102z"/>
<path d="M3280 9349 c-140 -65 -196 -195 -180 -416 5 -60 15 -126 23 -148 8
-22 17 -87 21 -145 l7 -105 -67 -35 c-92 -48 -320 -208 -317 -223 2 -7 7 -75
12 -152 7 -104 19 -177 47 -285 30 -119 35 -150 26 -173 -6 -16 -9 -34 -6 -42
3 -7 -15 -25 -44 -43 -55 -34 -68 -65 -51 -125 10 -36 81 -110 140 -144 51
-30 54 -80 19 -295 -13 -79 -12 -329 1 -428 14 -101 12 -162 -11 -316 -18
-120 -18 -138 -4 -235 32 -230 135 -808 151 -853 l18 -48 -49 -44 c-82 -75
-191 -139 -461 -274 -1091 -542 -2011 -1201 -2395 -1717 -95 -128 -170 -271
-149 -284 21 -13 23 -12 43 39 55 136 170 286 376 493 474 477 1187 957 2115
1423 302 152 402 210 487 285 50 44 58 48 58 28 0 -8 16 -36 35 -63 38 -53 62
-110 161 -388 55 -154 64 -189 65 -250 0 -39 4 -93 8 -121 l9 -50 -59 -63
c-48 -51 -59 -69 -59 -97 0 -71 29 -103 110 -120 22 -4 46 -20 65 -42 26 -30
40 -36 105 -49 125 -24 314 -15 330 16 11 20 -1 66 -56 223 l-38 108 37 30
c56 46 64 89 77 424 26 682 51 965 120 1360 27 155 41 296 35 347 -3 23 -10
142 -15 263 l-9 220 32 45 32 45 -3 248 -2 248 41 49 41 49 -7 93 c-3 51 -10
199 -13 328 l-7 235 -66 140 c-36 77 -72 155 -79 173 -15 40 -45 62 -82 62
-15 0 -80 21 -143 48 l-115 47 6 40 c4 32 1 46 -17 69 l-22 28 42 35 c63 53
71 75 71 203 0 85 -4 121 -17 148 -20 43 -99 124 -161 166 -39 27 -53 30 -130
33 -71 2 -95 -1 -132 -18z"/>
</g>
</svg>
