<?xml version="1.0" encoding="utf-8"?>
<!-- Generator: Adobe Illustrator 27.5.0, SVG Export Plug-In . SVG Version: 6.00 Build 0)  -->
<svg version="1.1" xmlns="http://www.w3.org/2000/svg" xmlns:xlink="http://www.w3.org/1999/xlink" x="0px" y="0px"
	 viewBox="0 0 500 500" style="enable-background:new 0 0 500 500;" xml:space="preserve">
<g id="BACKGROUND">
</g>
<g id="OBJECTS">
	<g>
		<ellipse style="opacity:0.2;fill:#5788B5;" cx="107.66" cy="473.197" rx="52.7" ry="7.311"/>
		<ellipse style="opacity:0.2;fill:#5788B5;" cx="255.273" cy="473.197" rx="40.087" ry="7.311"/>
		<ellipse style="opacity:0.2;fill:#5788B5;" cx="407.99" cy="473.197" rx="56.37" ry="7.311"/>
	</g>
	<g>
		<g>
			<g>
				<path style="fill:#72140F;" d="M408.051,168.96c12.128-2.152,22.975-7.29,28.755-15.453
					c-12.95-11.488-0.716-27.358-17.801-41.274c-17.379-14.156-31.26,1.574-31.26,1.574l9.172,54.415
					C402.249,168.771,402.335,169.974,408.051,168.96z"/>
				<g>
					<g>
						<path style="fill:#FF8B45;" d="M421.218,170.67l-10.719,1.725c0,0-1.153-8.937-3.872-19.542l-15.423-0.062
							c0,0,3.86,16.616,1.53,21.54c-0.7,1.478-13.879,2.123-10.842,6.459c7.078,10.107,36.02,26.136,41.892,18.253
							C432.178,187.778,421.218,170.67,421.218,170.67z"/>
						<path style="fill:#E27037;" d="M392.895,162.09c-0.675-4.924-1.69-9.299-1.69-9.299l15.423,0.062
							c2.154,8.401,3.252,15.258,3.617,17.751C403.962,168.865,397.965,165.923,392.895,162.09z"/>
					</g>
					<path style="fill:#FF8B45;" d="M386.865,119.146c0,0,17.528-10.589,28.334,8.312c10.807,18.901,8.051,33.051-5.436,35.292
						c-8.042,1.336-16.299-0.229-23.444-10.423C379.174,142.133,370.247,127.797,386.865,119.146z"/>
				</g>
				<g>
					<path style="fill:#941F14;" d="M398.005,114.075c0,0,4.665,3.367,3.112,9.587c-1.553,6.22-10.986,2.543-10.786,9.53
						c0.201,6.988,7.079,17.075-3.337,21.154c0,0-3.493-11.591-6.144-9.353c-2.651,2.238,11.664,13.558,11.664,13.558
						s-25.931-5.227-24.003-28.532C370.441,106.715,395.577,111.89,398.005,114.075z"/>
					<path style="fill:#941F14;" d="M368.928,137.662c0,0,5.281,20.344-5.477,26.995c0,0,8.998,8.803,30.124,4.499
						c0,0,1.565-11.345-4.303-13.693c0,0-10.367,0.587-13.693-8.216C372.254,138.444,368.928,137.662,368.928,137.662z"/>
				</g>
			</g>
			<g>
				<g>
					<g>
						<path style="fill:#D65730;" d="M411.991,146.427c0.751-1.674,1.612-3.278,2.514-4.855l0.335,0.775
							c-0.348-0.057-0.611-0.134-0.899-0.233c-0.278-0.102-0.555-0.206-0.819-0.333c-0.541-0.234-1.035-0.546-1.518-0.87
							c-0.241-0.162-0.466-0.344-0.7-0.516c-0.235-0.171-0.435-0.38-0.654-0.569c-0.22-0.188-0.413-0.401-0.615-0.606
							c-0.199-0.207-0.407-0.407-0.579-0.637c-0.368-0.44-0.715-0.893-1.028-1.369c-0.327-0.466-0.589-0.972-0.869-1.462
							c-0.257-0.504-0.484-1.021-0.705-1.537c-0.197-0.528-0.369-1.065-0.527-1.601c0.338,0.453,0.66,0.907,0.962,1.366
							c0.342,0.437,0.644,0.893,0.978,1.324c0.351,0.419,0.647,0.874,1.02,1.267c0.34,0.419,0.694,0.822,1.072,1.201
							c0.367,0.388,0.745,0.763,1.143,1.112c0.4,0.348,0.805,0.685,1.228,0.999c0.429,0.303,0.868,0.591,1.322,0.845
							c0.225,0.133,0.459,0.242,0.693,0.351c0.228,0.097,0.488,0.207,0.681,0.268l0.726,0.231l-0.391,0.545
							C414.302,143.599,413.202,145.048,411.991,146.427z"/>
					</g>
					<g>
						<path style="fill:#7F150F;" d="M390.604,138.631c0,0,0.051-1.026,0.722-2.385c0.324-0.682,0.811-1.434,1.461-2.15
							c0.339-0.341,0.689-0.71,1.103-1.016c0.418-0.303,0.846-0.609,1.332-0.828c0.466-0.253,0.969-0.424,1.473-0.56
							c0.49-0.188,1.018-0.168,1.5-0.245c0.486-0.077,0.963,0.023,1.402,0.041c0.444,0.002,0.843,0.159,1.211,0.249
							c0.366,0.104,0.701,0.18,0.973,0.335c0.278,0.128,0.513,0.259,0.704,0.362c0.381,0.211,0.586,0.347,0.586,0.347
							s-0.258,0.017-0.685,0.02c-0.213-0.001-0.469,0.003-0.754-0.013c-0.283-0.031-0.611,0.034-0.953,0.038
							c-0.344,0.034-0.711,0.007-1.089,0.087c-0.376,0.078-0.776,0.088-1.167,0.199c-0.389,0.118-0.802,0.176-1.187,0.351
							c-0.392,0.147-0.793,0.281-1.163,0.497c-0.395,0.162-0.744,0.412-1.111,0.626c-0.352,0.233-0.702,0.476-1.027,0.73
							c-0.305,0.278-0.641,0.511-0.915,0.787c-0.288,0.261-0.551,0.523-0.801,0.767c-0.481,0.499-0.892,0.934-1.17,1.254
							C390.765,138.437,390.604,138.631,390.604,138.631z"/>
					</g>
					<g>
						<path style="fill:#7F150F;" d="M406.105,131.136c0,0,0.104-0.728,0.603-1.644c0.235-0.468,0.584-0.968,1.013-1.467
							c0.23-0.237,0.458-0.492,0.733-0.713c0.272-0.226,0.552-0.448,0.874-0.633c0.307-0.195,0.647-0.358,0.999-0.486
							c0.329-0.159,0.729-0.197,1.074-0.274c0.366-0.033,0.731-0.027,1.06,0.007c0.335,0.08,0.646,0.151,0.906,0.27
							c0.259,0.134,0.479,0.278,0.663,0.404c0.181,0.131,0.298,0.305,0.405,0.419c0.203,0.246,0.293,0.392,0.293,0.392
							s-0.192-0.02-0.484-0.064c-0.147-0.018-0.311-0.061-0.5-0.075c-0.196,0.003-0.405,0.01-0.614-0.006
							c-0.216,0.013-0.445,0.081-0.667,0.097c-0.221,0.066-0.454,0.136-0.694,0.208c-0.234,0.124-0.477,0.175-0.718,0.326
							c-0.242,0.128-0.492,0.247-0.733,0.413c-0.498,0.284-0.982,0.644-1.461,0.964c-0.466,0.342-0.922,0.659-1.327,0.937
							C406.734,130.774,406.105,131.136,406.105,131.136z"/>
					</g>
					<g>
						<path style="fill:#001014;" d="M410.723,137.818c0,0-0.115-0.176-0.278-0.507c-0.164-0.334-0.373-0.821-0.516-1.453
							c-0.072-0.315-0.133-0.665-0.147-1.047c-0.007-0.382-0.007-0.798,0.112-1.229c0.118-0.422,0.281-0.891,0.623-1.267
							c0.323-0.378,0.751-0.698,1.211-0.869l0.173-0.067c0.049-0.015,0.014-0.012,0.131-0.042l0.075-0.016l0.3-0.065
							c0.258-0.028,0.563-0.058,0.798-0.016c0.503,0.045,0.96,0.252,1.327,0.493c0.751,0.487,1.201,1.132,1.534,1.679
							c0.331,0.553,0.519,1.049,0.64,1.396c0.119,0.349,0.166,0.555,0.166,0.555s-0.137-0.158-0.376-0.435
							c-0.236-0.275-0.57-0.666-0.985-1.093c-0.422-0.414-0.926-0.89-1.515-1.176c-0.289-0.158-0.601-0.226-0.902-0.251
							c-0.166-0.023-0.269,0.007-0.417,0.011l-0.298,0.075l-0.074,0.019c0.067-0.019-0.013,0.011-0.013,0.011l-0.113,0.049
							c-0.624,0.217-1.032,0.703-1.264,1.317c-0.224,0.617-0.288,1.301-0.297,1.893c-0.005,0.593,0.027,1.106,0.057,1.463
							C410.706,137.609,410.723,137.818,410.723,137.818z"/>
					</g>
					<g>
						<path style="fill:#001014;" d="M397.125,143.697c0,0-0.109-0.167-0.268-0.477c-0.161-0.312-0.365-0.768-0.53-1.353
							c-0.16-0.584-0.312-1.297-0.21-2.119c0.046-0.405,0.164-0.855,0.432-1.26c0.254-0.41,0.679-0.757,1.135-0.924l0.172-0.065
							c0.159-0.049,0.126-0.029,0.199-0.047c0.106-0.016,0.168-0.041,0.309-0.048c0.14-0.007,0.28-0.008,0.419-0.005l0.363,0.064
							c0.474,0.114,0.855,0.372,1.178,0.626c0.622,0.539,1.018,1.148,1.301,1.682c0.286,0.533,0.456,1.003,0.564,1.334
							c0.107,0.331,0.151,0.526,0.151,0.526s-0.126-0.153-0.347-0.42c-0.216-0.267-0.523-0.647-0.897-1.076
							c-0.379-0.423-0.838-0.897-1.366-1.261c-0.265-0.176-0.553-0.293-0.825-0.359l-0.206-0.03
							c-0.054,0.006-0.107,0.008-0.161,0.004c-0.052-0.006-0.178,0.035-0.263,0.05c-0.021,0.006-0.154,0.031-0.084,0.022
							l-0.099,0.044c-0.554,0.173-0.856,0.691-1.009,1.314c-0.153,0.62-0.142,1.284-0.127,1.847
							c0.028,0.566,0.072,1.053,0.111,1.391C397.104,143.499,397.125,143.697,397.125,143.697z"/>
					</g>
					<g>
						<path style="fill:#D65730;" d="M401.671,151.645c0,0,1.047,0.147,2.573,0.284c0.766,0.047,1.651,0.118,2.592,0.104
							c0.471,0.018,0.953-0.03,1.441-0.052c0.491-0.005,0.974-0.112,1.465-0.161c0.477-0.101,0.968-0.169,1.426-0.31
							c0.445-0.171,0.928-0.238,1.329-0.459c0.412-0.193,0.838-0.338,1.183-0.581c0.352-0.227,0.73-0.395,1.003-0.65
							c0.287-0.236,0.568-0.443,0.815-0.634c0.217-0.222,0.407-0.416,0.563-0.576c0.332-0.319,0.522-0.501,0.522-0.501
							s-0.105,0.236-0.315,0.651c-0.107,0.206-0.235,0.461-0.397,0.747c-0.196,0.258-0.426,0.548-0.69,0.858
							c-0.242,0.337-0.599,0.598-0.961,0.899c-0.35,0.324-0.785,0.563-1.238,0.81c-0.442,0.276-0.95,0.434-1.456,0.625
							c-0.511,0.172-1.05,0.268-1.582,0.39c-0.54,0.042-1.08,0.14-1.61,0.131c-0.531,0.018-1.052-0.007-1.551-0.059
							c-1.001-0.081-1.912-0.295-2.675-0.51C402.58,152.202,401.671,151.645,401.671,151.645z"/>
					</g>
				</g>
				<g>
					<path style="fill:#FF8B45;" d="M389.949,154.57c0,0-2.974-10.727-7.233-10.285c-4.258,0.442-3.733,5.565-0.939,8.318
						C384.222,155.012,388.326,156.954,389.949,154.57z"/>
					<g>
						<path style="fill:#D65730;" d="M387.804,154.297c-0.349-0.065-0.693-0.163-1.028-0.297c-0.333-0.141-0.666-0.299-0.975-0.582
							c-0.071-0.085-0.151-0.154-0.213-0.261c-0.052-0.12-0.136-0.213-0.142-0.373c-0.025-0.152-0.023-0.302,0.037-0.441
							c0.043-0.157,0.116-0.263,0.197-0.356c0.165-0.224,0.338-0.3,0.516-0.442l0.525-0.275l-0.323,0.626
							c-0.312-0.868-0.663-1.747-1.026-2.591c-0.383-0.829-0.769-1.685-1.287-2.314c-0.125-0.15-0.258-0.297-0.386-0.382
							c-0.13-0.091-0.236-0.125-0.337-0.135c-0.044-0.014-0.125,0.012-0.158,0.012l-0.326,0.139
							c-0.134,0.076-0.281,0.174-0.425,0.309c-0.547,0.54-0.692,1.535-0.593,2.488c-0.238-0.425-0.398-0.908-0.437-1.423
							c-0.01-0.257-0.019-0.528,0.052-0.794c0.055-0.269,0.172-0.532,0.323-0.78c0.153-0.241,0.37-0.453,0.634-0.643l0.308-0.192
							c0.183-0.093,0.332-0.153,0.527-0.176c0.377-0.056,0.745,0.066,1.021,0.22c0.285,0.157,0.494,0.353,0.693,0.55
							c0.384,0.399,0.658,0.842,0.91,1.279c0.254,0.438,0.459,0.892,0.642,1.35c0.183,0.458,0.36,0.915,0.493,1.385
							c0.137,0.471,0.275,0.931,0.373,1.422l0.097,0.485l-0.42,0.141l-0.428,0.144c-0.1,0.062-0.266,0.118-0.311,0.18
							c-0.048,0.028-0.082,0.055-0.086,0.071c-0.032,0.017-0.033,0.039-0.039,0.063c-0.03,0.02,0.012,0.074,0.009,0.119
							c0.01,0.05,0.057,0.107,0.082,0.165c0.151,0.239,0.404,0.472,0.664,0.685C387.229,153.891,387.511,154.098,387.804,154.297z"
							/>
					</g>
				</g>
			</g>
		</g>
		<g>
			<g>
				<g>
					<g>
						<g>
							<path style="fill:#FF8B45;" d="M436.733,368.57c0,0-11.09,13.18,27.475,58.568l7.618-2.214c0,0-10.913-34.764-14.866-55.34
								c-3.531-18.379-12.651-38.205-26.732-29.46C420.815,345.968,436.733,368.57,436.733,368.57z"/>
							<path style="fill:#FF8B45;" d="M455.095,413.889c0,0,11.71,18.246,13.048,17.872c1.337-0.374,14.805-20.899,13.578-23.4
								c-1.227-2.501-14.301,13.221-14.301,13.221L455.095,413.889z"/>
						</g>
						<path style="fill:#091B2E;" d="M466.361,430.152c2.257-3.247,9.383-13.621,9.64-15.555c0.171-1.29-0.858-1.089-1.796-0.663
							c3.393-3.578,6.908-6.811,7.515-5.573c1.227,2.501-12.24,23.026-13.578,23.4C467.884,431.834,467.235,431.205,466.361,430.152
							z"/>
					</g>
					<path style="fill:#E27037;" d="M446.831,404.065c5.792-2.065,11.234-4.901,16.404-8.542c-2.44-8.946-4.825-18.396-6.274-25.94
						c-3.531-18.379-12.651-38.205-26.732-29.46c-9.413,5.846,6.505,28.447,6.505,28.447S429.564,377.103,446.831,404.065z"/>
				</g>
				<g>
					<path style="fill:#E94137;" d="M434.297,236.572l-3.291,13.39c0,0,28.611,86.871,33.967,138.099c0,0-10.14,11.352-33.059,9.538
						c0,0-9.365-28.231-9.73-50.632c0,0-41.538-55.203-41.714-72.337S434.297,236.572,434.297,236.572z"/>
					<path style="opacity:0.4;fill:#941F14;" d="M434.297,236.572l-3.291,13.39c0,0,28.611,86.871,33.967,138.099
						c0,0-10.14,11.352-33.059,9.538c0,0-9.365-28.231-9.73-50.632c0,0-41.538-55.203-41.714-72.337
						S434.297,236.572,434.297,236.572z"/>
				</g>
			</g>
			<g>
				<g>
					<g>
						<g>
							<path style="fill:#FF8B45;" d="M348.999,313.779c0,0,12.109-12.25-22.698-60.579l-7.771,1.597
								c0,0,8.094,35.526,10.387,56.353c2.048,18.602,9.552,39.095,24.288,31.506C363.057,337.582,348.999,313.779,348.999,313.779z
								"/>
							<path style="fill:#FF8B45;" d="M334.325,267.135c0,0-10.212-19.125-11.575-18.86c-1.363,0.266-16.43,19.647-15.408,22.238
								c1.023,2.591,15.314-12.034,15.314-12.034L334.325,267.135z"/>
						</g>
						<path style="fill:#E27037;" d="M348.999,313.779c0,0,8.394-8.502-8.907-39.264c-6.283,4.789-10.673,10.629-14.011,17.637
							c1.184,6.744,2.221,13.402,2.837,18.997c2.048,18.602,9.552,39.095,24.288,31.506
							C363.057,337.582,348.999,313.779,348.999,313.779z"/>
					</g>
					<path style="fill:#091B2E;" d="M324.396,250.022c-2.51,3.055-10.444,12.826-10.854,14.733
						c-0.274,1.272,0.768,1.154,1.737,0.805c-3.668,3.295-7.431,6.237-7.937,4.953c-1.023-2.591,14.045-21.972,15.408-22.238
						C323.013,248.224,323.609,248.903,324.396,250.022z"/>
				</g>
				<g>
					<path style="fill:#E94137;" d="M438.075,271.39c-1.965-6.999-4.25-15.904-7.069-21.428l3.291-13.39l-34.585-7.955l-2.867,7.51
						c0,0-12.514,1.534-22.834,10.851c-12.784,11.54-6.806,29.492-6.806,29.492l-11.511,23.591
						c-1.156-4.943-3.814-13.718-9.38-22.005c0,0-16.301,11.133-23.697,25.463c0,0,11.359,47.057,28.007,45.58
						c10.948-0.971,35.977-21.008,56.901-53.24C407.524,295.858,426.215,288.556,438.075,271.39z"/>
					<path style="opacity:0.4;fill:#941F14;" d="M432.807,242.634l1.49-6.061l-34.585-7.955l-6.13,6.104
						C400.536,243.121,415.25,245.254,432.807,242.634z"/>
				</g>
			</g>
		</g>
		<g>
			<g>
				<g>
					<path style="fill:#FF8B45;" d="M429.474,189.928c0,0,45.453,8.832,51.368,3.837c5.916-4.996,5.352-92.554,2.186-55.709
						c0,0-1.187-25.052-2.085,0.874c0,0-1.634-26.994-2.308-0.097c0,0-0.843-20.841-2.741,1.633c0,0-9.94-14.319-0.204,4.537
						c0,0-8.16,30.694-9.48,30.376c-1.32-0.318-38.516-4.868-38.516-4.868L429.474,189.928z"/>
					<path style="fill:#E27037;" d="M452.557,173.422c-11.573-1.372-24.862-2.912-24.862-2.912l1.779,19.418
						c0,0,12.016,2.214,24.826,3.826C455.993,187.404,454.391,179.85,452.557,173.422z"/>
				</g>
				<path style="fill:#72A0D1;" d="M449.762,169.964c0,0,3.748,23.752-0.267,28.76c0,0-14.767-1.28-17.434-2.09
					c-2.667-0.81-11.311-26.535-11.311-26.535S428.806,166.382,449.762,169.964z"/>
			</g>
			<g>
				<path style="fill:#72A0D1;" d="M430.522,174.571c-2.402-1.303-4.819-4.075-9.771-4.472c-4.798,6.918-18.077,8.562-26.074,3.439
					c-8.999,1.911-16.276,5.404-17.158,10.706c-2.167,13.026,9.047,50.172,9.047,50.172s29.81,4.756,55.372,1.248
					C441.937,235.664,440.598,180.036,430.522,174.571z"/>
				<path style="opacity:0.5;fill:#5280AA;" d="M414.452,214.888c-16.674-5.103-27.969-19.765-33.88-35.52
					c-1.655,1.415-2.747,3.034-3.054,4.877c-2.167,13.026,9.047,50.172,9.047,50.172s29.81,4.756,55.372,1.248
					c0,0-0.201-8.305-1.027-18.811C431.902,217.649,422.971,217.494,414.452,214.888z"/>
			</g>
			<g>
				<g>
					<path style="fill:#FF8B45;" d="M392.385,194.83c0,0-37.616,31.607-45.271,30.177c-7.656-1.43-51.432-77.635-30.059-47.237
						c0,0-11.635-22.307,2.249-0.265c0,0-12.23-24.21,1.952-1.217c0,0-9.806-18.486,3.203,0.071c0,0,1.381-17.293,2.47,3.835
						c0,0,22.594,22.614,23.577,21.691c0.984-0.923,33.605-24.767,33.605-24.767L392.385,194.83z"/>
					<path style="fill:#E27037;" d="M367.165,214.43c12.256-8.707,25.22-19.6,25.22-19.6l-8.274-17.711
						c0,0-18.869,13.792-28.335,20.801C359.246,203.382,362.842,209.417,367.165,214.43z"/>
				</g>
				<path style="fill:#72A0D1;" d="M358.605,189.455c0,0,12.653,22.204,18.667,24.578c0,0,16.097-10.289,18-12.3
					c1.904-2.01-0.595-28.195-0.595-28.195S377.077,171.959,358.605,189.455z"/>
			</g>
		</g>
	</g>
	<g>
		<g>
			<g>
				<g>
					<polygon style="fill:#72140F;" points="238.198,124.659 244.557,148.02 237.492,151.722 259.253,164.502 279.661,152.941 
						285.584,137.875 264.994,144.693 259.714,123.529 					"/>
					<g>
						<g>
							<path style="fill:#941F14;" d="M229.052,95.505c0,0,20.873-9.829,24.764-9.588c3.891,0.241,21.888,30.947,23.005,38.53
								c1.116,7.582-15.438,21.515-28.979,11.234C234.302,125.4,221.863,102.895,229.052,95.505z"/>
							<path style="fill:#941F14;" d="M232.91,116.193c0,0-6.003-4.947-7.957,1.836c-1.954,6.783,11.101,15.824,14.38,9.809
								C242.612,121.824,232.91,116.193,232.91,116.193z"/>
						</g>
					</g>
				</g>
				<g>
					<path style="fill:#091B2E;" d="M257.316,79.449c1.644-9.211-0.696-13.711-4.325-8.087c0,0-0.615-4.303-3.688-3.688
						c-3.074,0.615-3.688,8.401-3.688,8.401s0-6.352-5.123-6.147c-5.123,0.205-2.254,7.582-2.254,7.582s-2.459-5.942-4.098-5.738
						c-1.639,0.205,1.639,5.738,1.639,5.738s-5.328-6.147-7.172-4.508c-1.844,1.639,1.434,6.557,1.434,6.557
						s-7.582-7.172-9.016-1.639c-0.322,1.242-0.228,2.267,0.091,3.126c-1.407-0.439-2.947-0.337-4.394,0.972
						c-3.299,2.985,1.107,7.411,3.344,9.316c-1.604-1.079-4.575-2.348-7.033,0.724c-2.459,3.074,4.918,6.967,4.918,6.967
						s-3.893-1.434-3.893,1.639c0,1.639,3.484,2.459,7.172,2.049c0,0,2.303,5.914,6.147,12.295c0.502-0.106,2.354,0.099,3.074,0.41
						c3.688,1.595,4.303,4.508,6.557,7.787l2.664-1.024l-6.352-13.729c0,0,3.483-3.893,0.41-11.065c0,0,20.286-2.459,24.794-12.5
						C262.648,75.701,262.139,68.928,257.316,79.449z"/>
					<path style="fill:#091B2E;" d="M256.885,84.066c0,0,5.533,10.041,6.967,14.344l-8.401-11.68L256.885,84.066z"/>
				</g>
			</g>
			<g>
				<path style="fill:#FFFFFF;" d="M253.256,127.632c0,0,10.044-3.848,17.398-8.156
					C270.654,119.476,267.486,130.477,253.256,127.632z"/>
				<g>
					<path style="fill:#600F0B;" d="M261.891,120.275c1.146-0.834,2.283-1.671,3.344-2.582c0.533-0.449,1.049-0.919,1.506-1.421
						c0.225-0.252,0.444-0.506,0.618-0.772c0.174-0.261,0.303-0.544,0.321-0.754l0.277,0.492c-0.646-0.263-1.251-0.591-1.845-0.925
						c-0.585-0.344-1.157-0.709-1.709-1.095c-1.116-0.757-2.175-1.585-3.209-2.437c-1.027-0.86-2.028-1.75-2.988-2.682
						c-0.959-0.934-1.892-1.895-2.756-2.927c2.222,1.51,4.335,3.122,6.452,4.715l1.585,1.193l1.595,1.168
						c0.533,0.388,1.079,0.746,1.614,1.122c0.544,0.359,1.1,0.684,1.656,0.996l0.332,0.186l-0.055,0.306
						c-0.088,0.494-0.32,0.842-0.551,1.154c-0.238,0.308-0.495,0.579-0.767,0.828c-0.544,0.495-1.121,0.925-1.709,1.333
						C264.412,118.968,263.18,119.677,261.891,120.275z"/>
				</g>
				<g>
					<path style="fill:#091B2E;" d="M240.657,110.722c0,0-0.065-0.261-0.068-0.715c-0.013-0.456,0.042-1.1,0.231-1.854
						c0.195-0.75,0.552-1.599,1.105-2.43c0.286-0.406,0.608-0.822,0.99-1.193c0.388-0.369,0.796-0.734,1.271-1.02
						c0.456-0.312,0.958-0.548,1.469-0.736c0.491-0.237,1.038-0.284,1.534-0.392c0.5-0.104,1-0.047,1.454-0.05
						c0.458-0.01,0.879,0.126,1.26,0.208c0.38,0.101,0.723,0.18,1.007,0.338c0.288,0.128,0.53,0.27,0.725,0.38
						c0.391,0.224,0.594,0.385,0.594,0.385s-0.262,0.094-0.685,0.203c-0.211,0.052-0.464,0.124-0.743,0.171
						c-0.28,0.036-0.588,0.175-0.911,0.256c-0.322,0.103-0.671,0.142-1.009,0.298c-0.337,0.144-0.706,0.209-1.044,0.383
						c-0.336,0.178-0.707,0.271-1.032,0.483c-0.336,0.186-0.686,0.346-0.998,0.585c-0.344,0.182-0.639,0.446-0.962,0.668
						c-0.31,0.239-0.607,0.499-0.907,0.747c-0.578,0.521-1.127,1.053-1.604,1.542c-0.48,0.486-0.895,0.922-1.192,1.238
						C240.834,110.537,240.657,110.722,240.657,110.722z"/>
				</g>
				<g>
					<path style="fill:#091B2E;" d="M255.05,102.767c0,0-0.059-0.188-0.083-0.506c-0.028-0.317-0.026-0.76,0.066-1.267
						c0.175-1.009,0.767-2.286,1.942-3.223c0.279-0.234,0.627-0.431,0.967-0.598c0.345-0.169,0.744-0.267,1.108-0.342
						c0.395-0.025,0.762-0.074,1.113,0.007c0.348,0.088,0.671,0.134,0.926,0.3c0.26,0.147,0.476,0.307,0.651,0.447
						c0.164,0.162,0.281,0.336,0.375,0.467c0.185,0.268,0.252,0.442,0.252,0.442s-0.207,0.049-0.5,0.099
						c-0.146,0.024-0.317,0.059-0.49,0.078c-0.182,0.06-0.37,0.131-0.55,0.18c-0.181,0.031-0.357,0.175-0.523,0.233
						c-0.168,0.06-0.324,0.218-0.483,0.283c-0.158,0.126-0.314,0.226-0.483,0.347c-0.16,0.146-0.344,0.236-0.516,0.405
						c-0.367,0.263-0.744,0.606-1.146,0.904c-0.39,0.318-0.801,0.614-1.179,0.878c-0.387,0.257-0.737,0.478-1.006,0.629
						C255.23,102.68,255.05,102.767,255.05,102.767z"/>
				</g>
				<g>
					<path style="fill:#001014;" d="M246.815,115.409c0,0-0.132-0.16-0.327-0.466c-0.197-0.309-0.454-0.764-0.663-1.366
						c-0.105-0.301-0.202-0.637-0.257-1.01c-0.048-0.373-0.094-0.781-0.023-1.215c0.07-0.427,0.179-0.903,0.473-1.308
						c0.275-0.405,0.66-0.765,1.091-0.982l0.162-0.084c0.046-0.02,0.012-0.013,0.123-0.056l0.072-0.024l0.287-0.096
						c0.249-0.055,0.545-0.118,0.78-0.103c0.497-0.011,0.967,0.142,1.353,0.339c0.788,0.395,1.299,0.979,1.684,1.478
						c0.384,0.506,0.622,0.97,0.778,1.297c0.154,0.328,0.223,0.525,0.223,0.525s-0.151-0.14-0.415-0.385
						c-0.261-0.244-0.63-0.59-1.083-0.963c-0.458-0.359-1.003-0.771-1.611-0.988c-0.3-0.124-0.612-0.156-0.91-0.148
						c-0.165-0.005-0.262,0.036-0.407,0.057l-0.283,0.106l-0.071,0.027c0.063-0.026-0.012,0.013-0.012,0.013l-0.105,0.06
						c-0.587,0.28-0.934,0.8-1.094,1.426c-0.153,0.629-0.141,1.305-0.086,1.885c0.059,0.581,0.147,1.08,0.215,1.426
						C246.776,115.206,246.815,115.409,246.815,115.409z"/>
				</g>
				<g>
					<path style="fill:#001014;" d="M260.171,108.255c0,0-0.125-0.152-0.314-0.438c-0.192-0.288-0.441-0.713-0.665-1.268
						c-0.22-0.554-0.446-1.236-0.435-2.052c0.001-0.401,0.068-0.855,0.286-1.281c0.205-0.429,0.583-0.815,1.012-1.028l0.161-0.083
						c0.15-0.065,0.121-0.042,0.19-0.067c0.102-0.027,0.16-0.059,0.298-0.081c0.136-0.022,0.274-0.038,0.41-0.05l0.362,0.023
						c0.477,0.061,0.878,0.271,1.221,0.485c0.668,0.46,1.121,1.014,1.456,1.506c0.338,0.491,0.555,0.933,0.697,1.245
						c0.141,0.313,0.205,0.499,0.205,0.499s-0.14-0.136-0.385-0.374c-0.24-0.238-0.582-0.577-0.995-0.956
						c-0.417-0.374-0.918-0.787-1.474-1.086c-0.278-0.143-0.573-0.227-0.847-0.262l-0.205-0.008
						c-0.053,0.012-0.104,0.019-0.157,0.021c-0.052,0-0.17,0.053-0.252,0.077c-0.02,0.008-0.147,0.047-0.079,0.031l-0.092,0.053
						c-0.523,0.229-0.764,0.77-0.845,1.396c-0.083,0.623,0.001,1.272,0.076,1.823c0.089,0.551,0.184,1.023,0.259,1.35
						C260.129,108.064,260.171,108.255,260.171,108.255z"/>
				</g>
				<g>
					<path style="fill:#600F0B;" d="M235.934,127.117c-0.403,0.039-0.814,0.041-1.227-0.018c-0.206-0.029-0.413-0.072-0.619-0.141
						c-0.205-0.07-0.413-0.155-0.607-0.298c-0.196-0.132-0.374-0.336-0.477-0.59c-0.072-0.121-0.067-0.257-0.092-0.391
						c-0.03-0.14,0.003-0.258,0.017-0.386c0.02-0.269,0.136-0.46,0.221-0.687c0.108-0.197,0.23-0.381,0.347-0.573l-0.077,0.426
						c-0.461-1.134-0.966-2.277-1.534-3.347c-0.138-0.272-0.296-0.526-0.448-0.785c-0.167-0.242-0.317-0.505-0.493-0.726
						c-0.166-0.239-0.355-0.437-0.542-0.625l-0.289-0.228c-0.094-0.035-0.19-0.103-0.275-0.129
						c-0.082,0.006-0.158-0.061-0.247-0.038c-0.158,0.013-0.329,0.026-0.4,0.061c-0.187,0.031-0.444,0.169-0.642,0.306
						c-0.21,0.145-0.399,0.33-0.558,0.545c-0.153,0.218-0.284,0.458-0.372,0.718c-0.095,0.257-0.16,0.535-0.163,0.816
						c-0.016,0.281,0.002,0.574,0.076,0.857c0.025,0.146,0.07,0.287,0.13,0.424c0.049,0.142,0.1,0.286,0.18,0.416
						c0.133,0.278,0.316,0.529,0.501,0.791c-0.246-0.196-0.514-0.386-0.717-0.643c-0.217-0.242-0.413-0.521-0.54-0.833
						c-0.145-0.304-0.249-0.64-0.279-0.985c-0.05-0.344-0.028-0.701,0.04-1.049c0.06-0.351,0.202-0.685,0.374-1.004
						c0.18-0.315,0.411-0.606,0.693-0.853c0.303-0.236,0.592-0.439,1.017-0.562c0.224-0.079,0.369-0.092,0.522-0.117
						c0.223-0.051,0.457,0.013,0.686,0.037c0.216,0.05,0.391,0.16,0.585,0.247c0.163,0.107,0.308,0.226,0.46,0.342
						c0.265,0.247,0.513,0.505,0.713,0.777c0.426,0.536,0.74,1.117,1.034,1.696c0.589,1.163,1.021,2.362,1.366,3.608l0.066,0.238
						l-0.143,0.189c-0.106,0.14-0.224,0.279-0.326,0.42c-0.063,0.143-0.191,0.29-0.211,0.427c-0.019,0.069-0.061,0.144-0.048,0.205
						c0.007,0.062-0.025,0.138,0.009,0.195c0.024,0.059,0.02,0.132,0.073,0.188c0.043,0.058,0.07,0.129,0.137,0.183
						c0.107,0.122,0.258,0.226,0.417,0.319c0.161,0.092,0.338,0.168,0.518,0.244C235.152,126.925,235.538,127.035,235.934,127.117z"
						/>
				</g>
			</g>
		</g>
		<g>
			<g>
				<g>
					<path style="fill:#0C2944;" d="M225.7,413.806l-5.987,25.991c0,0,61.122,37.031,16.12-3.175l9.116-34.662L225.7,413.806z"/>
					<path style="fill:none;stroke:#FFFFFF;stroke-width:0.9998;stroke-linecap:round;stroke-miterlimit:10;" d="M236.912,436.806
						c0,0-3.376-1.023-5.486,0.701"/>
					<path style="fill:none;stroke:#FFFFFF;stroke-width:0.9998;stroke-linecap:round;stroke-miterlimit:10;" d="M239.193,439.195
						c0,0-3.376-1.023-5.486,0.701"/>
					<path style="fill:none;stroke:#FFFFFF;stroke-width:0.9998;stroke-linecap:round;stroke-miterlimit:10;" d="M241.793,441.753
						c0,0-3.375-1.023-5.486,0.701"/>
				</g>
				<g>
					<path style="fill:#0C2944;" d="M245.555,310.013l-21.864-9.86c0,0-40.471,54.799,0.612,16.415l29.006,14.268L245.555,310.013z"
						/>
					<path style="fill:none;stroke:#FFFFFF;stroke-width:0.9391;stroke-linecap:round;stroke-miterlimit:10;" d="M223.999,317.607
						c0,0,1.344-3.181,0.123-5.528"/>
					<path style="fill:none;stroke:#FFFFFF;stroke-width:0.9391;stroke-linecap:round;stroke-miterlimit:10;" d="M221.611,319.5
						c0,0,1.344-3.182,0.123-5.528"/>
					<path style="fill:none;stroke:#FFFFFF;stroke-width:0.9391;stroke-linecap:round;stroke-miterlimit:10;" d="M219.031,321.681
						c0,0,1.344-3.181,0.123-5.528"/>
				</g>
			</g>
			<g>
				<path style="fill:#72A0D1;" d="M234.838,245.303c0,0,32.533,5.207,64.824,2.218c0,0-4.597,70.833-12.184,83.623
					c-8.779,14.801-32.992,18.231-31.246-0.413c1.747-18.644,9.378-47.909,9.378-47.909l6.504-0.247
					c0,0-22.134,122.992-33.643,148.84l-17.337-5.593c0,0-0.268-34.96,5.472-85.721C232.358,289.23,234.838,245.303,234.838,245.303
					z"/>
				<g>
					<path style="fill:#5280AA;" d="M256.378,255.1c12.087,0.764,24.125,0.594,36.218,0.025c2.182-0.103,4.362-0.228,6.543-0.347
						c0.344-4.508,0.523-7.257,0.523-7.257c-32.291,2.99-64.824-2.218-64.824-2.218s0.028,2.037,0.025,5.766
						C241.658,253.679,249.146,254.642,256.378,255.1z"/>
					<path style="fill:#5280AA;" d="M272.02,283.093c-0.699,3.861-5.375,29.55-11.314,58.826
						c7.114,4.298,20.669-0.486,26.772-10.775c4.086-6.889,7.305-30.615,9.405-51.044
						C288.584,280.998,280.294,281.977,272.02,283.093z"/>
				</g>
			</g>
		</g>
		<g>
			<g>
				<g>
					<path style="fill:#941F14;" d="M180.631,47.463c0,0-1.199-27.053,3.275-0.441c0,0-2.056-28.059,2.326-0.415
						c0,0-2.011-21.607,3.003,1.31c0,0,8.982-17.818,1.707,2.955c0,0,15.453,41.129,19.147,50.83l32.827,51.282
						c0,0,6.928,28.247-9.175,19.398c-16.103-8.849-39.675-60.965-39.675-60.965s2.023-2.208,0,0
						C186.695,93.056,170.252,15.439,180.631,47.463z"/>
					<path style="fill:#72140F;" d="M242.916,152.983l-11.381-17.779c-4.533,6.512-9.367,12.81-14.083,19.19
						c5.529,8.273,11.271,15.23,16.288,17.988C249.844,181.23,242.916,152.983,242.916,152.983z"/>
				</g>
				<polygon style="fill:#FF8B45;" points="252.674,155.851 235.136,135.524 219.849,163.071 233.42,176.694 				"/>
			</g>
			<g>
				<g>
					<path style="fill:#941F14;" d="M317.887,34.737c0,0-3.425-26.863-3.302,0.123c0,0-2.752-28-2.362-0.013
						c0,0-1.697-21.634-2.736,1.802c0,0-11.885-16.028-1.179,3.203c0,0-8.224,43.16-10.212,53.348l-23.616,56.123
						c0,0-2.017,29.014,12.345,17.553c14.362-11.461,28.715-66.83,28.715-66.83s-2.37-1.831,0,0
						C319.676,80.697,322.661,1.413,317.887,34.737z"/>
					<path style="fill:#72140F;" d="M286.064,121.794l-11.583,27.528c0,0-2.017,29.014,12.345,17.553
						c6.101-4.869,12.2-17.663,17.198-30.769C297.669,131.806,291.624,127.1,286.064,121.794z"/>
				</g>
				<g>
					<polygon style="fill:#FF8B45;" points="275.171,140.676 283.883,119.895 305.775,147.115 293.193,167.275 					"/>
					<polygon style="fill:#E27037;" points="275.171,140.676 283.883,119.895 305.775,147.115 293.193,167.275 					"/>
				</g>
			</g>
			<g>
				<path style="fill:#FF8B45;" d="M285.584,137.875l-4.946-10.124l-5.314,13.016c-0.038,4.607-2.346,10.035-11.964,12.37
					c-8.938,2.17-14.171-0.683-17.188-4.153l-1.029,0.29l-17.933,5.055c0,0,5.09,59.349,5.489,93.66c0,0,50.962,8.35,69.416,1.043
					C302.114,249.033,305.34,190.243,285.584,137.875z"/>
				<path style="fill:#E27037;" d="M278.06,223.509c-20.901-4.173-36.827-18.413-48.286-35.657
					c1.332,19.207,2.724,42.85,2.925,60.139c0,0,50.962,8.35,69.416,1.043c0,0,0.509-9.299-0.119-23.787
					C293.95,225.524,285.883,225.071,278.06,223.509z"/>
			</g>
		</g>
	</g>
	<g>
		<g>
			<g>
				<path style="fill:#091B2E;" d="M134.146,108.504c0,0-11.425-16.224-29.02-2.742s-3.428,30.162-21.251,36.332
					s-19.651,26.278-0.229,38.846c19.423,12.568,37.246-5.941,37.246-5.941L134.146,108.504z"/>
				<g>
					<g>
						<path style="fill:#941F14;" d="M100.751,163.382l10.544,2.02c0,0,1.403-8.8,4.402-19.202l15.246,0.392
							c0,0-4.305,16.31-2.145,21.246c0.648,1.482,13.656,2.507,10.527,6.704c-7.294,9.783-36.373,24.775-41.946,16.81
							C89.415,179.969,100.751,163.382,100.751,163.382z"/>
						<path style="fill:#72140F;" d="M129,155.733c0.812-4.847,1.944-9.142,1.944-9.142l-15.246-0.392
							c-2.376,8.241-3.663,14.986-4.097,17.44C117.861,162.105,123.876,159.373,129,155.733z"/>
					</g>
					<path style="fill:#941F14;" d="M136.224,113.462c0,0-17.014-10.983-28.252,7.383c-11.238,18.365-8.93,32.433,4.335,35.045
						c7.91,1.558,16.117,0.253,23.48-9.613C143.15,136.41,152.395,122.502,136.224,113.462z"/>
				</g>
			</g>
			<g>
				<path style="fill:#FFFFFF;" d="M120.325,146.313c0,0-9.082-2.664-15.837-5.922C104.488,140.391,108.046,149.816,120.325,146.313
					z"/>
				<g>
					<path style="fill:#590C08;" d="M109.935,140.703c-1.143-1.406-2.182-2.876-3.181-4.369l-0.351-0.524l0.685-0.19
						c0.197-0.055,0.457-0.155,0.687-0.244c0.235-0.1,0.471-0.201,0.699-0.326c0.458-0.237,0.903-0.51,1.337-0.797
						c0.428-0.298,0.84-0.62,1.247-0.954c0.404-0.335,0.791-0.695,1.164-1.069c0.384-0.365,0.746-0.754,1.093-1.16
						c0.379-0.38,0.684-0.822,1.041-1.228c0.341-0.419,0.65-0.863,0.998-1.287c0.31-0.447,0.637-0.889,0.979-1.329
						c-0.177,0.523-0.367,1.047-0.58,1.561c-0.237,0.501-0.479,1.004-0.75,1.493c-0.293,0.474-0.567,0.965-0.906,1.414
						c-0.324,0.46-0.68,0.896-1.058,1.318c-0.177,0.222-0.387,0.412-0.59,0.611c-0.205,0.196-0.402,0.401-0.625,0.579
						c-0.221,0.18-0.425,0.38-0.662,0.542c-0.235,0.163-0.463,0.336-0.705,0.489c-0.485,0.305-0.981,0.598-1.52,0.814
						c-0.263,0.118-0.539,0.214-0.816,0.306c-0.287,0.09-0.549,0.159-0.89,0.205l0.334-0.714
						C108.418,137.428,109.229,139.034,109.935,140.703z"/>
				</g>
				<g>
					<path style="fill:#091B2E;" d="M131.955,132.613c0,0-0.153-0.196-0.427-0.515c-0.265-0.324-0.658-0.766-1.12-1.274
						c-0.24-0.248-0.492-0.515-0.769-0.782c-0.262-0.281-0.588-0.521-0.881-0.805c-0.312-0.262-0.654-0.508-0.991-0.755
						c-0.35-0.23-0.694-0.482-1.081-0.649c-0.357-0.228-0.746-0.382-1.134-0.529c-0.378-0.175-0.782-0.251-1.164-0.377
						c-0.384-0.121-0.778-0.143-1.148-0.231c-0.371-0.091-0.734-0.075-1.073-0.118c-0.338-0.015-0.66-0.088-0.941-0.066
						c-0.282,0.008-0.535-0.004-0.745-0.009c-0.422-0.016-0.676-0.04-0.676-0.04s0.206-0.128,0.589-0.326
						c0.192-0.096,0.428-0.218,0.707-0.337c0.273-0.145,0.607-0.211,0.972-0.302c0.366-0.079,0.765-0.222,1.204-0.211
						c0.435-0.005,0.909-0.09,1.387,0c0.473,0.093,0.998,0.083,1.474,0.291c0.491,0.16,0.986,0.333,1.441,0.593
						c0.47,0.236,0.88,0.557,1.29,0.86c0.405,0.308,0.737,0.688,1.063,1.033c0.622,0.727,1.081,1.485,1.381,2.169
						C131.934,131.597,131.955,132.613,131.955,132.613z"/>
				</g>
				<g>
					<path style="fill:#091B2E;" d="M116.853,124.748c0,0-0.611-0.376-1.381-0.957c-0.392-0.286-0.833-0.613-1.284-0.965
						c-0.464-0.33-0.932-0.7-1.416-0.996c-0.233-0.172-0.478-0.297-0.713-0.43c-0.234-0.156-0.472-0.214-0.7-0.343
						c-0.236-0.079-0.464-0.155-0.68-0.227c-0.219-0.022-0.444-0.096-0.657-0.115c-0.207,0.01-0.413-0.003-0.607-0.012
						c-0.187,0.008-0.351,0.046-0.496,0.06c-0.289,0.035-0.48,0.049-0.48,0.049s0.093-0.142,0.301-0.379
						c0.108-0.11,0.23-0.278,0.412-0.402c0.185-0.119,0.407-0.255,0.667-0.38c0.261-0.111,0.57-0.171,0.904-0.241
						c0.327-0.023,0.687-0.019,1.048,0.025c0.338,0.086,0.732,0.136,1.053,0.303c0.344,0.137,0.675,0.308,0.973,0.51
						c0.312,0.193,0.583,0.421,0.845,0.652c0.266,0.227,0.483,0.486,0.704,0.727c0.409,0.506,0.739,1.01,0.958,1.48
						C116.772,124.025,116.853,124.748,116.853,124.748z"/>
				</g>
				<g>
					<path style="fill:#001014;" d="M120.084,131.783c0,0-0.023,0.206-0.063,0.565c-0.04,0.352-0.088,0.858-0.1,1.444
						c-0.008,0.585,0.035,1.263,0.238,1.879c0.211,0.614,0.6,1.106,1.21,1.339l0.11,0.051c0,0,0.078,0.033,0.013,0.012l0.073,0.021
						l0.292,0.083c0.146,0.008,0.247,0.042,0.412,0.024c0.298-0.016,0.609-0.074,0.899-0.222c0.59-0.266,1.103-0.722,1.532-1.118
						c0.423-0.41,0.764-0.786,1.006-1.051c0.244-0.267,0.384-0.419,0.384-0.419s-0.052,0.202-0.18,0.543
						c-0.13,0.34-0.33,0.824-0.674,1.361c-0.345,0.531-0.809,1.156-1.565,1.615c-0.37,0.228-0.828,0.419-1.326,0.448
						c-0.234,0.034-0.535-0.005-0.788-0.04l-0.295-0.073l-0.074-0.018c-0.115-0.033-0.08-0.029-0.128-0.046l-0.169-0.071
						c-0.449-0.183-0.863-0.512-1.171-0.895c-0.327-0.382-0.474-0.85-0.578-1.271c-0.106-0.429-0.093-0.841-0.075-1.218
						c0.024-0.377,0.095-0.722,0.176-1.031c0.16-0.62,0.381-1.096,0.553-1.421C119.965,131.954,120.084,131.783,120.084,131.783z"/>
				</g>
				<g>
					<path style="fill:#001014;" d="M106.816,125.572c0,0-0.026,0.194-0.073,0.534c-0.049,0.333-0.106,0.813-0.15,1.372
						c-0.031,0.557-0.062,1.213,0.071,1.83c0.132,0.62,0.416,1.141,0.958,1.328l0.096,0.046c-0.069-0.011,0.061,0.017,0.082,0.024
						c0.084,0.017,0.207,0.061,0.259,0.057c0.053-0.002,0.105,0.001,0.159,0.008l0.204-0.024c0.271-0.057,0.559-0.165,0.826-0.33
						c0.532-0.344,1-0.799,1.387-1.206c0.383-0.413,0.697-0.78,0.918-1.038c0.226-0.258,0.355-0.405,0.355-0.405
						s-0.049,0.192-0.165,0.516c-0.117,0.324-0.298,0.784-0.597,1.302c-0.295,0.519-0.704,1.11-1.335,1.624
						c-0.326,0.242-0.71,0.485-1.183,0.584l-0.361,0.053c-0.137-0.001-0.276-0.006-0.414-0.017c-0.14-0.011-0.2-0.038-0.304-0.057
						c-0.071-0.02-0.039,0.001-0.195-0.052l-0.168-0.07c-0.446-0.178-0.855-0.534-1.095-0.947c-0.253-0.408-0.356-0.857-0.389-1.258
						c-0.077-0.816,0.094-1.517,0.27-2.089c0.18-0.573,0.395-1.018,0.563-1.322C106.704,125.734,106.816,125.572,106.816,125.572z"
						/>
				</g>
			</g>
		</g>
		<g>
			<g>
				<g>
					<g>
						<path style="fill:#72140F;" d="M71.065,267.723c-2.451-7.334-5.007-14.644-6.855-22.141
							c-23.077,3.592-47.7,9.854-49.14,20.312c-1.689,12.264,30.783,15.87,60.475,16.897
							C74.24,277.715,72.725,272.69,71.065,267.723z"/>
						<path style="fill:#72140F;" d="M45.903,271.332c0,0,9.113-4.532,41.594,65.77l-6.152,6.248c0,0-28.088-28.858-46.027-43.501
							c-16.024-13.079-30.522-32.355-14.627-41.462C31.317,252.299,45.903,271.332,45.903,271.332z"/>
						<path style="fill:#72140F;" d="M79.393,321.286c0,0,11.603,20.966,10.537,22.071c-1.066,1.105-28.098,3.433-29.886,0.927
							s20.365-6.973,20.365-6.973L79.393,321.286z"/>
					</g>
					<path style="fill:#091B2E;" d="M104.652,240.372c0,0-34.523,2.227-60.722,8.866c6.457,10.027,10.336,21.304,12.294,33.023
						c24.406,2.327,52.44,1.926,62.346,2.075c19.171,0.288,22.485-33.52,22.485-33.52L104.652,240.372z"/>
				</g>
				<g>
					<path style="fill:#EFEEE6;" d="M89.3,340.779c-4.342,0.492-18.173,1.979-20.189,1.214c-1.344-0.51-0.608-1.406,0.297-2.095
						c-5.261,1.422-10.25,3.144-9.364,4.386c1.789,2.506,28.821,0.177,29.886-0.927C90.136,343.143,89.865,342.182,89.3,340.779z"/>
					<g>
						<path style="fill:#091B2E;" d="M89.932,342.644c-4.32,1.16-27.56,2.978-29.215,0.66c-0.048-0.067-0.07-0.135-0.085-0.205
							c-0.596,0.422-0.846,0.824-0.589,1.185c1.789,2.506,28.821,0.177,29.886-0.927C90.022,343.261,90.014,343.01,89.932,342.644z"
							/>
					</g>
				</g>
			</g>
			<g>
				<g>
					<path style="fill:#941F14;" d="M93.273,241.866c0,0,31.239-13.346,40.201,3.603c8.963,16.949,47.463,92.8,33.581,99.622
						c-18.052,8.871-65.443-66.283-65.443-66.283L93.273,241.866z"/>
					<path style="fill:#941F14;" d="M164.75,312.283c0,0-12.354-14.484,29.931-64.933l8.436,2.391c0,0-11.803,38.502-16.019,61.272
						c-3.766,20.338-13.699,42.317-29.326,32.757C147.325,337.38,164.75,312.283,164.75,312.283z"/>
					<path style="fill:#941F14;" d="M184.707,262.06c0,0,12.807-20.253,14.288-19.849c1.481,0.404,16.517,22.988,15.18,25.761
						c-1.337,2.773-15.904-14.506-15.904-14.506L184.707,262.06z"/>
				</g>
				<g>
					<path style="fill:#EFEEE6;" d="M197.038,244.003c2.519,3.571,10.471,14.984,10.769,17.12c0.199,1.424-0.941,1.209-1.98,0.746
						c3.776,3.929,7.685,7.477,8.347,6.103c1.337-2.773-13.699-25.357-15.18-25.761
						C198.709,242.133,197.996,242.832,197.038,244.003z"/>
					<g>
						<path style="fill:#091B2E;" d="M198.369,242.552c3.094,3.231,15.86,22.735,14.623,25.301
							c-0.036,0.074-0.085,0.127-0.139,0.173c0.657,0.32,1.129,0.346,1.322-0.053c1.337-2.773-13.699-25.357-15.18-25.761
							C198.867,242.176,198.65,242.304,198.369,242.552z"/>
					</g>
				</g>
				<g>
					<path style="fill:#0C2944;" d="M76.992,220.266c0,0,17.466,71.143,62.197,109.058c0,0,18.744-7.242,25.561-17.04l-17.04-42.601
						c0,0,8.045-19.302-5.11-33.06c-10.619-11.106-24.289-13.811-24.289-13.811l-2.551-8.51L76.992,220.266z"/>
					<path style="fill:#091B2E;" d="M119.593,224.952l-3.834-10.65l-38.767,5.964c0,0,0.895,3.638,2.789,9.693
						C105.832,233.501,119.593,224.952,119.593,224.952z"/>
				</g>
			</g>
		</g>
		<g>
			<g>
				<g>
					<path style="fill:#941F14;" d="M92.663,180.386c0,0-46.983-12.553-50.067-19.569c-3.084-7.016,35.897-88.718,22.754-54.147
						c0,0,11.899-22.088,1.471,1.673c0,0,13.136-23.65,2.089,0.892c0,0,9.771-18.437,1.725,2.636c0,0,15.016-8.694-1.784,4.178
						c0,0-8.44,35.749-7.132,36.022c1.308,0.273,39.114,13.183,39.114,13.183L92.663,180.386z"/>
					<path style="fill:#72140F;" d="M77.082,157.178c-1.444,3.505-2.797,7.048-3.838,10.693c-0.491,1.719-1.131,3.957-1.558,6.307
						c11.036,3.551,20.977,6.208,20.977,6.208l7.126-15.503C99.789,164.883,88.041,160.887,77.082,157.178z"/>
				</g>
				<g>
					<path style="fill:#E94137;" d="M94.969,182.277c-0.069-0.12-0.118-0.257-0.126-0.423c-0.271-6.193,1.217-13.855,5.908-18.473
						c-6.262-4.632-17.724-7.569-17.724-7.569c-8.549,8.332-9.129,23.818-9.129,23.818s8.151,4.427,16.121,4.732
						c1.961,0.075,3.629-0.066,5.078-0.463C95.073,183.358,95.029,182.817,94.969,182.277z"/>
					<path style="opacity:0.4;fill:#941F14;" d="M94.969,182.277c-0.069-0.12-0.118-0.257-0.126-0.423
						c-0.271-6.193,1.217-13.855,5.908-18.473c-6.262-4.632-17.724-7.569-17.724-7.569c-8.549,8.332-9.129,23.818-9.129,23.818
						s8.151,4.427,16.121,4.732c1.961,0.075,3.629-0.066,5.078-0.463C95.073,183.358,95.029,182.817,94.969,182.277z"/>
				</g>
			</g>
			<g>
				<path style="fill:#E94137;" d="M146.942,174.846c-2.036-2.521-6.453-4.609-11.779-6.285
					c-8.208,4.491-20.375,10.104-26.914,8.113c-9.126-2.777-8.82-9.17-7.498-13.293c-7.053,0.708-13.135,5.113-18.704,12.074
					c-6.093,7.617-3.961,16.452-3.961,16.452c-7.922,12.187-8.531,24.983-8.531,24.983c24.374,13.406,56.669,6.703,56.669,6.703
					S153.34,182.768,146.942,174.846z"/>
				<path style="opacity:0.4;fill:#941F14;" d="M84.159,211.422c-5.703-0.917-9.541-3.474-12.126-6.647
					c-2.228,6.921-2.478,12.117-2.478,12.117c24.374,13.406,56.669,6.703,56.669,6.703s18.706-28.166,21.377-42.247
					C134.372,209.664,99.242,213.846,84.159,211.422z"/>
			</g>
			<g>
				<g>
					<path style="fill:#941F14;" d="M144.473,175.938c0,0,26.088,41.041,23.609,48.294c-2.479,7.253-84.036,39.203-50.961,22.651
						c0,0-23.71,8.205,0.05-2.227c0,0-25.678,8.518-0.934-2.07c0,0-19.672,6.958,0.515-3.108c0,0-16.938-3.764,4.141-1.868
						c0,0,27.972-18.797,27.194-19.883c-0.778-1.087-19.869-36.179-19.869-36.179L144.473,175.938z"/>
					<path style="fill:#72140F;" d="M140.234,203.567c3.435-1.602,6.829-3.295,10.063-5.273c1.525-0.933,3.51-2.148,5.415-3.588
						c-5.72-10.084-11.24-18.768-11.24-18.768l-16.255,5.609C128.217,181.546,134.676,193.419,140.234,203.567z"/>
				</g>
				<path style="fill:#E94137;" d="M134.423,201.964c0,0-14.175-20.296-5.477-25.772c8.698-5.477,13.208-5.799,19.007-0.322
					c5.799,5.477,9.02,14.175,9.02,14.175S146.342,201.32,134.423,201.964z"/>
			</g>
		</g>
		<g>
			<g>
				<path style="fill:#091B2E;" d="M125.361,108.122c0,0-4.71,3.191-3.358,9.385c1.352,6.193,10.785,2.836,10.381,9.737
					c-0.404,6.901-7.499,16.669,2.676,21.008c0,0,3.794-11.354,6.348-9.064c2.555,2.29-11.929,13.058-11.929,13.058
					s25.786-4.404,24.565-27.497C152.824,101.657,127.825,106.034,125.361,108.122z"/>
				<path style="fill:#091B2E;" d="M133.232,149.178c0,0-14.853,4.57-10.511,18.966c4.342,14.396,15.31-1.219,24.221,6.703
					c8.912,7.922,26.735,3.58,27.42-13.101c0.585-14.238-18.901-12.875-16.224-25.135c4.342-19.88,4.57-34.504-27.192-30.848
					c0,0,21.708,28.334,21.022,28.334c-0.686,0-8.912,11.882-8.912,11.882S131.632,151.691,133.232,149.178z"/>
			</g>
			<g>
				<path style="fill:#941F14;" d="M132.134,148.387c0,0,3.256-10.516,7.452-9.954c4.196,0.562,3.526,5.611,0.684,8.25
					C137.781,148.992,133.668,150.791,132.134,148.387z"/>
				<g>
					<path style="fill:#590C08;" d="M134.262,148.18c0.297-0.184,0.583-0.377,0.852-0.58c0.265-0.201,0.525-0.421,0.685-0.655
						c0.028-0.057,0.077-0.113,0.089-0.163c-0.001-0.046,0.044-0.099,0.016-0.124c-0.005-0.027-0.005-0.052-0.037-0.074
						c-0.004-0.02-0.038-0.05-0.085-0.081c-0.046-0.068-0.208-0.128-0.308-0.195l-0.421-0.159l-0.398-0.15l0.114-0.443
						c0.244-0.945,0.543-1.853,0.943-2.744c0.195-0.446,0.41-0.888,0.673-1.312c0.261-0.424,0.543-0.851,0.931-1.233
						c0.201-0.187,0.41-0.374,0.693-0.519c0.273-0.142,0.634-0.25,0.997-0.186c0.187,0.027,0.331,0.09,0.505,0.185l0.299,0.197
						c0.252,0.193,0.458,0.405,0.602,0.645c0.141,0.246,0.25,0.506,0.297,0.772c0.064,0.263,0.049,0.529,0.033,0.782
						c-0.05,0.506-0.218,0.979-0.46,1.394c0.135-0.935,0.032-1.926-0.495-2.49c-0.138-0.141-0.283-0.245-0.417-0.328l-0.318-0.148
						c-0.037-0.004-0.118-0.033-0.166-0.022c-0.201-0.01-0.498,0.184-0.757,0.495c-0.537,0.611-0.945,1.448-1.348,2.258
						c-0.383,0.826-0.754,1.686-1.086,2.538l-0.284-0.593l0.508,0.283c0.169,0.143,0.338,0.223,0.491,0.444
						c0.077,0.092,0.145,0.197,0.181,0.35c0.054,0.136,0.052,0.28,0.024,0.426c-0.01,0.153-0.094,0.242-0.148,0.357
						c-0.063,0.103-0.143,0.168-0.215,0.249c-0.31,0.269-0.641,0.417-0.973,0.549C134.948,148.033,134.607,148.122,134.262,148.18z"
						/>
				</g>
			</g>
		</g>
	</g>
</g>
</svg>
