<svg width="502" height="382" viewBox="0 0 502 382" fill="none" xmlns="http://www.w3.org/2000/svg">
<g opacity="0.31">
<path opacity="0.31" d="M404.296 335.456C425.399 334.528 446.129 326.083 456.262 311.558C465.652 298.101 467.371 277.312 463.188 262.37C459.655 249.794 449.615 238.936 438.134 229.748C414.987 211.186 385.146 197.682 365.53 176.707C354.654 165.06 341.639 138.146 331.181 126.266C310.822 103.157 286.698 87.9825 251.046 84.2237C205.123 79.3513 174.631 113.969 159.757 139.491C146.974 161.44 150.275 188.077 134.517 208.819C127.266 218.332 116.483 225.942 108.534 235.13C94.3574 251.465 90.0811 272.811 97.1928 291.79C104.304 310.723 122.618 326.918 145.766 334.668" fill="url(#paint0_linear)"/>
</g>
<g opacity="0.31">
<g opacity="0.31">
<path opacity="0.31" d="M370.179 305.155C375.385 300.468 379.196 294.528 382.589 288.449C384.355 285.247 386.029 281.952 387.749 278.704C389.608 275.131 391.467 271.558 393.233 267.938C396.627 261.071 399.88 254.156 402.902 247.149C405.969 240.096 408.805 232.996 411.501 225.803C414.197 218.611 416.66 211.325 418.984 203.993C419.263 203.112 419.542 202.23 419.821 201.348C420.007 200.699 419.031 200.374 418.845 200.977C416.614 208.262 414.197 215.502 411.547 222.648C408.944 229.794 406.155 236.894 403.134 243.901C400.159 250.908 396.998 257.869 393.652 264.69C390.259 271.697 386.633 278.611 383.007 285.479C379.754 291.558 376.221 297.637 371.341 302.602C370.736 303.206 370.132 303.809 369.528 304.366C369.017 304.783 369.667 305.572 370.179 305.155Z" fill="url(#paint1_linear)"/>
</g>
<path opacity="0.31" d="M418.008 204.272C416.521 200.095 417.125 195.223 419.728 191.65C420.75 190.211 422.517 188.865 424.19 189.422C425.445 189.84 426.189 191.186 426.235 192.485C426.282 193.784 425.817 195.037 425.259 196.244C423.586 199.77 421.262 202.926 418.38 205.571" fill="url(#paint2_linear)"/>
<path opacity="0.31" d="M416.381 210.815C414.197 210.49 412.477 208.773 411.175 207.01C410.292 205.757 409.456 204.365 409.177 202.833C408.898 201.302 409.223 199.585 410.292 198.471C410.478 198.286 410.664 198.146 410.897 198.1C411.129 198.054 411.361 198.054 411.594 198.146C412.709 198.425 413.592 199.306 414.15 200.281C414.708 201.255 414.987 202.416 415.219 203.529C415.731 206.081 415.917 208.727 415.87 211.325" fill="url(#paint3_linear)"/>
<path opacity="0.31" d="M411.547 223.065C410.757 223.158 409.967 222.88 409.177 222.601C407.131 221.813 404.9 220.931 403.738 219.075C403.134 218.147 402.855 217.033 402.669 215.919C402.39 214.202 402.437 212.3 403.506 210.908C403.878 210.443 404.342 210.072 404.9 209.933C405.597 209.794 406.341 210.119 406.852 210.583C407.364 211.047 407.736 211.696 408.014 212.346C409.874 216.244 410.757 218.843 411.547 223.065Z" fill="url(#paint4_linear)"/>
<path opacity="0.31" d="M406.527 237.497C406.434 237.729 406.062 237.729 405.83 237.683C403.459 237.172 401.135 236.198 399.276 234.667C397.37 233.135 395.976 231.001 395.511 228.634C395.325 227.567 395.325 226.36 395.976 225.478C396.813 224.365 398.532 224.133 399.834 224.643C401.135 225.154 402.111 226.314 402.902 227.474C404.947 230.676 405.783 234.481 406.574 238.193" fill="url(#paint5_linear)"/>
<path opacity="0.31" d="M400.345 252.532C399.23 252.671 398.114 252.207 397.045 251.743C394.488 250.583 392.025 249.145 390.212 247.01C388.399 244.875 387.377 241.952 388.074 239.26C388.353 238.193 389.004 237.079 390.073 236.755C390.863 236.523 391.746 236.755 392.536 237.126C395.65 238.657 397.324 242.091 398.439 245.339C399.137 247.381 399.741 249.469 400.252 251.604" fill="url(#paint6_linear)"/>
<path opacity="0.31" d="M391.607 270.073C385.843 268.727 380.776 264.69 378.173 259.4C377.151 257.358 376.593 254.667 378.173 252.996C379.196 251.929 380.869 251.65 382.264 252.068C383.658 252.486 384.867 253.46 385.889 254.527C389.375 258.333 390.77 263.623 392.025 268.634" fill="url(#paint7_linear)"/>
<path opacity="0.31" d="M412.198 223.437C414.661 220.652 418.38 219.353 421.959 218.332C422.842 218.054 423.865 217.868 424.562 218.425C425.166 218.935 425.213 219.91 424.98 220.699C424.562 222.044 423.539 223.158 422.284 223.854C421.029 224.55 419.635 224.829 418.194 224.968C415.963 225.154 413.685 224.829 411.687 223.901" fill="url(#paint8_linear)"/>
<path opacity="0.31" d="M416.428 210.397C418.891 207.613 422.61 206.313 426.189 205.293C427.072 205.014 428.095 204.829 428.792 205.385C429.396 205.896 429.443 206.87 429.21 207.659C428.792 209.005 427.769 210.119 426.514 210.815C425.259 211.511 423.865 211.789 422.424 211.928C420.193 212.114 417.915 211.789 415.917 210.861" fill="url(#paint9_linear)"/>
<path opacity="0.31" d="M406.527 237.265C409.548 233.599 414.29 231.465 419.031 231.604C420.1 231.65 421.215 231.836 421.912 232.671C422.517 233.367 422.563 234.434 422.238 235.27C421.912 236.105 421.262 236.801 420.518 237.358C418.845 238.611 416.707 239.214 414.615 239.353C412.523 239.446 410.385 239.121 408.34 238.611C407.503 238.425 406.667 238.147 406.155 237.451" fill="url(#paint10_linear)"/>
<path opacity="0.31" d="M400.206 251.79C403.366 248.727 407.875 247.567 412.198 246.824C413.871 246.546 415.777 246.314 417.125 247.335C418.845 248.588 418.891 251.326 417.59 253.043C416.288 254.759 414.15 255.502 412.012 255.734C408.014 256.152 404.017 254.759 400.67 252.578" fill="url(#paint11_linear)"/>
<path opacity="0.31" d="M391.885 268.82C394.349 266.546 397.696 265.433 401.042 265.108C404.389 264.783 407.736 265.247 411.082 265.665C412.709 265.85 414.522 266.221 415.359 267.66C415.916 268.634 415.777 269.887 415.266 270.862C414.754 271.836 413.871 272.579 412.895 273.182C408.061 276.291 401.507 275.966 396.394 273.321C394.209 272.208 392.118 270.537 391.328 268.217" fill="url(#paint12_linear)"/>
<path opacity="0.31" d="M381.66 289.98C381.613 290.305 381.148 290.305 380.823 290.212C375.199 288.356 370.643 283.577 369.017 277.915C368.691 276.848 368.505 275.688 368.645 274.574C368.877 272.857 369.946 271.326 371.108 270.073C371.387 269.748 371.713 269.47 372.084 269.33C372.596 269.191 373.153 269.423 373.618 269.655C376.965 271.419 379.335 274.713 380.498 278.287C381.66 281.86 381.753 285.758 381.334 289.47" fill="url(#paint13_linear)"/>
<path opacity="0.31" d="M380.683 290.352C382.45 288.356 384.96 287.011 387.516 286.222C390.073 285.433 392.815 285.154 395.465 284.922C397.463 284.737 399.508 284.598 401.368 285.34C403.227 286.082 404.761 287.985 404.389 289.934C404.064 291.837 402.204 293.043 400.392 293.832C396.906 295.363 393.001 296.106 389.283 295.456C385.564 294.76 381.985 292.533 380.265 289.192" fill="url(#paint14_linear)"/>
</g>
<path d="M112.764 308.728C111.184 304.273 106.536 302.556 102.399 301.906C93.3348 316.106 81.9933 318.89 75.7648 319.308L77.5775 329.934H98.0294L99.145 321.442C104.351 321.35 108.906 319.586 111.37 316.524C113.275 314.296 113.74 311.512 112.764 308.728ZM107.465 313.415C106.257 314.899 103.514 316.245 99.7957 316.431L101.051 306.872C104.072 307.243 107.233 308.217 108.023 310.445C108.395 311.512 108.209 312.486 107.465 313.415Z" fill="#E0A836"/>
<path d="M102.445 301.953C102.213 301.906 101.934 301.86 101.701 301.86L102.956 292.254C103.049 291.697 102.585 291.187 102.027 291.187H72.2787C71.628 291.187 71.1167 291.79 71.2561 292.44L75.8113 319.354C81.9933 318.937 93.3348 316.106 102.445 301.953Z" fill="#F6C042"/>
<path d="M270.522 133.088C268.152 138.563 266.339 143.853 265.456 149.329C264.573 154.758 264.294 160.327 262.899 165.663C261.691 170.397 259.692 174.851 257.554 179.26C257.368 179.677 257.136 180.095 257.136 180.513C257.136 181.394 257.879 182.044 258.577 182.554C269.221 190.35 284.048 192.114 296.227 187.009" fill="#0D2030"/>
<path d="M267.687 169.84C273.489 169.84 278.192 164.002 278.192 156.8C278.192 149.599 273.489 143.76 267.687 143.76C261.885 143.76 257.182 149.599 257.182 156.8C257.182 164.002 261.885 169.84 267.687 169.84Z" fill="#F6C042"/>
<path d="M272.66 171.696C278.462 171.696 283.165 165.858 283.165 158.656C283.165 151.455 278.462 145.617 272.66 145.617C266.859 145.617 262.156 151.455 262.156 158.656C262.156 165.858 266.859 171.696 272.66 171.696Z" fill="url(#paint15_linear)"/>
<path d="M296.273 187.102L274.334 141.162C271.917 149.236 269.5 157.311 267.176 165.431C266.432 168.123 265.642 170.861 265.409 173.645C265.177 176.104 265.363 178.564 265.921 180.977C266.478 183.297 267.361 185.617 269.035 187.334C269.314 187.659 269.686 187.891 270.011 188.169C278.564 190.722 287.999 190.536 296.273 187.102Z" fill="black"/>
<path d="M291.671 185.478C292.647 191.046 293.484 197.404 289.998 201.859C289.254 202.833 288.232 203.808 288.185 205.06C288.092 206.685 289.673 207.891 291.114 208.634C296.738 211.464 303.571 211.789 309.474 209.562C309.985 209.376 310.45 209.144 310.775 208.773C311.519 207.845 311.054 206.499 310.589 205.432C306.406 195.455 306.545 183.761 310.915 173.877" fill="#FFC7AE"/>
<path d="M291.206 183.9C292.183 187.798 292.833 191.603 292.368 195.594C292.368 195.733 292.322 195.872 292.461 195.965C292.601 196.104 292.833 196.058 292.973 195.965C294.274 195.501 295.576 195.037 296.691 194.248C298.597 192.949 300.828 190.582 301.804 188.494C303.152 185.617 303.803 182.786 303.57 179.631" fill="url(#paint16_linear)"/>
<path d="M322.814 141.858C321.512 150.35 318.166 168.68 313.099 175.64C309.195 180.977 302.734 183.761 296.459 185.756C295.111 186.22 293.67 186.638 292.276 186.87C290.835 187.102 289.347 187.195 287.906 186.87C286.419 186.545 285.025 185.849 283.723 185.014C281.864 183.807 280.19 182.322 278.75 180.605C275.403 176.568 273.544 171.417 272.8 166.22C272.056 161.023 272.335 155.733 272.8 150.489C273.172 146.313 273.73 141.904 275.449 138.099C276.147 136.521 277.076 135.083 278.238 133.784L322.814 141.858Z" fill="#FFC7AE"/>
<path d="M292.229 186.87C290.788 187.102 289.301 187.195 287.86 186.87C286.372 186.545 284.978 185.849 283.677 185.014C281.817 183.807 280.144 182.322 278.703 180.605C275.356 176.568 273.497 171.417 272.753 166.22C272.01 161.023 272.289 155.733 272.753 150.489C273.125 146.313 273.683 141.904 275.403 138.099L280.19 137.774L289.161 145.199C289.254 145.292 275.31 166.916 292.229 186.87Z" fill="url(#paint17_linear)"/>
<path d="M321.14 116.057C309.938 110.628 293.67 111.741 285.536 116.428C277.355 121.115 274.008 125.245 269.732 134.99C269.5 135.593 268.012 139.166 268.245 139.723C268.477 140.326 268.756 140.651 269.36 140.883C279.447 144.735 288.325 145.431 299.062 145.941C302.641 146.127 306.313 146.127 309.799 145.292C314.726 161.812 312.17 173.645 303.942 188.819C309.288 191.093 330.111 192.392 340.058 184.689C342.615 182.694 344.939 180.373 346.519 177.543C350.47 170.35 348.75 161.487 346.612 153.598C345.032 147.705 343.219 141.858 340.291 136.475C335.782 128.215 329.74 119.769 321.14 116.057Z" fill="#0D2030"/>
<path d="M346.194 177.682C344.66 180.513 342.29 182.879 339.733 184.828C335.41 188.169 328.996 189.793 322.721 190.397C326.672 189.469 330.344 188.03 333.179 185.849C335.736 183.854 338.06 181.534 339.64 178.703C343.591 171.51 341.871 162.647 339.733 154.758C338.153 148.865 336.34 143.018 333.458 137.635C328.996 129.375 322.953 120.93 314.354 117.217C307.94 114.108 299.898 113.18 292.647 113.783C301.2 111.741 312.495 112.113 320.908 116.196C329.507 119.909 335.55 128.401 340.012 136.614C342.894 141.997 344.707 147.844 346.287 153.737C348.472 161.626 350.145 170.489 346.194 177.682Z" fill="url(#paint18_linear)"/>
<path d="M328.345 183.575C327.648 183.018 327.044 182.369 326.718 181.58C326.068 180.002 326.625 178.239 327.137 176.661C327.973 173.923 328.578 171.093 328.485 168.215C328.392 165.338 327.508 162.461 325.556 160.327C322.767 157.264 318.445 156.29 314.354 155.454C313.518 155.269 312.634 155.129 311.798 154.944C313.332 166.777 310.403 176.754 303.896 188.819C309.241 191.093 330.065 192.392 340.012 184.689C340.384 184.411 340.709 184.086 341.081 183.807C340.477 184.132 339.873 184.503 339.222 184.735C335.643 186.128 331.32 185.942 328.345 183.575Z" fill="black"/>
<path d="M291.811 155.361C289.022 153.877 286.884 155.315 286.837 155.315L286.28 154.526C286.373 154.433 288.929 152.763 292.229 154.526L291.811 155.361Z" fill="#161119"/>
<path d="M311.844 155.083H309.381V154.109H311.751L311.844 155.083Z" fill="#161119"/>
<path d="M277.82 164.364C272.8 164.364 268.756 160.28 268.756 155.315C268.756 150.303 272.846 146.266 277.82 146.266C282.84 146.266 286.884 150.35 286.884 155.315C286.884 160.28 282.84 164.364 277.82 164.364ZM277.82 147.287C273.404 147.287 269.779 150.907 269.779 155.315C269.779 159.723 273.404 163.343 277.82 163.343C282.236 163.343 285.861 159.723 285.861 155.315C285.861 150.907 282.236 147.287 277.82 147.287Z" fill="#161119"/>
<path d="M300.642 164.364C295.622 164.364 291.578 160.28 291.578 155.315C291.578 150.303 295.669 146.266 300.642 146.266C305.662 146.266 309.706 150.35 309.706 155.315C309.753 160.28 305.662 164.364 300.642 164.364ZM300.642 147.287C296.227 147.287 292.601 150.907 292.601 155.315C292.601 159.723 296.227 163.343 300.642 163.343C305.058 163.343 308.684 159.723 308.684 155.315C308.684 150.907 305.104 147.287 300.642 147.287Z" fill="#161119"/>
<path d="M291.543 184.171C293.281 184.004 294.583 182.772 294.453 181.42C294.322 180.068 292.807 179.108 291.07 179.275C289.332 179.443 288.029 180.674 288.16 182.026C288.291 183.378 289.805 184.339 291.543 184.171Z" fill="#161119"/>
<path d="M297.017 182.23C295.622 182.369 294.181 182.415 292.74 182.369L292.787 181.023C309.241 181.673 321.884 168.401 322.024 168.262L323 169.19C322.907 169.283 311.937 180.791 297.017 182.23Z" fill="#161119"/>
<path d="M268.524 144.642C269.825 135.454 274.659 125.291 282.607 120.094C289.719 115.454 299.201 115.129 307.01 118.145C313.75 120.744 318.212 126.452 320.397 133.18C322.256 138.888 322.535 144.735 322.953 150.675C323.093 152.624 326.161 152.624 326.021 150.675C325.603 145.013 325.37 139.398 323.837 133.923C321.838 126.776 317.701 120.233 311.008 116.66C303.059 112.391 292.508 111.927 284.327 115.686C277.634 118.748 272.753 124.688 269.686 131.231C267.826 135.176 266.246 139.538 265.642 143.853C265.316 145.756 268.245 146.591 268.524 144.642Z" fill="#F6C042"/>
<path d="M322.814 173.506C328.615 173.506 333.319 167.668 333.319 160.466C333.319 153.264 328.615 147.426 322.814 147.426C317.012 147.426 312.309 153.264 312.309 160.466C312.309 167.668 317.012 173.506 322.814 173.506Z" fill="#F6C042"/>
<path d="M324.441 172.856C329.96 172.856 334.434 167.309 334.434 160.466C334.434 153.623 329.96 148.076 324.441 148.076C318.922 148.076 314.447 153.623 314.447 160.466C314.447 167.309 318.922 172.856 324.441 172.856Z" fill="url(#paint19_linear)"/>
<path d="M333.876 160.466C333.876 167.334 329.414 172.856 323.883 172.856C323.139 172.856 322.442 172.763 321.791 172.578C326.3 171.371 329.647 166.406 329.647 160.466C329.647 154.526 326.253 149.561 321.791 148.354C322.488 148.169 323.186 148.076 323.883 148.076C329.414 148.076 333.876 153.645 333.876 160.466Z" fill="url(#paint20_linear)"/>
<path d="M354.7 328.681C364.368 323.948 371.062 314.946 376.221 305.711C385.61 288.913 391.235 269.47 388.12 250.629C387.516 246.917 386.168 242.787 382.636 241.256C380.962 240.56 379.057 240.56 377.29 241.07C373.851 242.045 371.155 244.829 369.574 247.984C367.947 251.094 367.297 254.62 366.646 258.054C362.091 282.463 358.884 307.289 350.145 330.584" fill="#CE9628"/>
<path d="M354.7 331.327C364.368 326.593 371.062 317.591 376.221 308.356C385.61 291.558 391.235 272.115 388.12 253.275C387.516 249.562 386.168 245.432 382.636 243.901C380.962 243.205 379.057 243.205 377.29 243.715C373.851 244.69 371.155 247.474 369.574 250.629C367.947 253.739 367.297 257.265 366.646 260.699C362.091 285.108 358.884 309.934 350.145 333.229" fill="#F6C042"/>
<path d="M353.027 331.698C360.51 328.217 369.063 317.591 373.246 310.445C380.776 297.544 386.401 284.133 384.448 269.33C384.076 266.407 383.147 263.159 380.497 261.906C379.242 261.303 377.755 261.256 376.407 261.627C373.758 262.323 371.666 264.458 370.364 266.825C369.063 269.238 368.459 271.929 367.901 274.621C363.857 293.553 360.789 312.858 353.585 330.863" fill="url(#paint21_linear)"/>
<path d="M379.335 254.063C378.545 259.91 377.709 265.757 376.686 271.558C375.663 277.312 374.501 283.066 373.06 288.727C371.712 293.971 370.086 299.122 367.994 304.087C365.949 309.053 363.532 313.832 360.789 318.426C358.093 322.927 355.072 327.289 351.725 331.327C351.307 331.837 350.889 332.301 350.47 332.812C350.377 332.904 350.517 333.044 350.61 332.951C354.049 329.006 357.117 324.737 359.906 320.329C362.741 315.735 365.251 310.955 367.39 306.036C369.528 301.117 371.294 296.059 372.688 290.862C374.269 285.154 375.477 279.4 376.546 273.6C377.616 267.799 378.452 261.952 379.289 256.105C379.382 255.409 379.475 254.713 379.568 254.017C379.568 253.924 379.335 253.924 379.335 254.063Z" fill="white"/>
<path d="M361.301 329.61C367.994 331.234 377.29 332.533 383.844 332.904C396.208 333.6 411.408 333.183 421.262 325.619C424.469 323.159 427.258 319.169 425.91 315.363C425.073 312.95 422.749 311.28 420.286 310.63C417.822 309.981 415.219 310.166 412.663 310.491C394.349 312.626 376.546 319.215 361.301 329.61Z" fill="#CE9628"/>
<path d="M358.465 330.259C365.158 331.883 374.455 333.183 381.009 333.554C393.373 334.25 408.572 333.832 418.426 326.268C421.633 323.809 424.422 319.818 423.074 316.013C422.238 313.6 419.914 311.93 417.45 311.28C414.987 310.63 412.384 310.816 409.827 311.141C391.513 313.275 373.711 319.911 358.465 330.259Z" fill="#F6C042"/>
<path d="M361.254 329.702C366.46 330.909 373.665 331.837 378.731 332.115C388.353 332.626 400.113 332.255 407.782 326.733C410.246 324.923 412.43 321.999 411.408 319.215C410.757 317.452 408.944 316.245 407.038 315.735C405.133 315.271 403.087 315.41 401.135 315.642C386.912 317.127 373.107 322.046 361.254 329.702Z" fill="url(#paint22_linear)"/>
<path d="M412.941 319.493C409.502 320.282 406.062 321.025 402.623 321.814C399.09 322.602 395.557 323.391 392.025 324.134C388.492 324.876 384.913 325.619 381.334 326.315C377.801 327.011 374.222 327.661 370.69 328.264C367.157 328.867 363.671 329.424 360.138 329.888C359.72 329.934 359.302 329.981 358.837 330.074C358.698 330.074 358.698 330.352 358.837 330.306C362.37 329.842 365.856 329.331 369.342 328.728C372.874 328.125 376.453 327.475 379.986 326.825C383.565 326.129 387.098 325.433 390.677 324.644C394.209 323.902 397.788 323.113 401.321 322.324C404.807 321.535 408.247 320.793 411.733 320.004C412.151 319.911 412.57 319.818 412.988 319.725C413.174 319.679 413.081 319.447 412.941 319.493Z" fill="white"/>
<path d="M358.326 325.201C372.363 324.459 388.074 316.152 399.322 307.707C406.713 302.138 414.057 296.245 419.542 288.82C424.004 282.695 427.165 275.641 428.699 268.217C429.721 263.344 429.535 257.312 425.305 254.667C423.028 253.228 420.053 253.228 417.543 254.11C415.033 254.991 412.848 256.708 410.896 258.518C405.318 263.762 400.996 270.166 396.673 276.477C385.331 292.811 371.248 310.027 358.326 325.201Z" fill="#CE9628"/>
<path d="M355.49 329.285C369.528 328.542 385.238 320.236 396.487 311.79C403.877 306.222 411.222 300.329 416.706 292.904C421.169 286.778 424.329 279.725 425.863 272.3C426.886 267.428 426.7 261.395 422.47 258.75C420.192 257.312 417.218 257.312 414.708 258.193C412.198 259.075 410.013 260.792 408.061 262.602C402.483 267.846 398.16 274.249 393.837 280.56C382.496 296.895 368.412 314.111 355.49 329.285Z" fill="#F6C042"/>
<path d="M359.302 327.289C370.178 326.733 382.264 320.607 390.956 314.389C396.673 310.305 402.344 305.943 406.573 300.468C410.06 295.967 412.477 290.769 413.639 285.294C414.429 281.72 414.289 277.266 411.036 275.317C409.269 274.249 406.992 274.249 405.04 274.899C403.087 275.549 401.414 276.802 399.88 278.147C395.557 281.999 392.257 286.732 388.864 291.373C380.125 303.438 369.249 316.106 359.302 327.289Z" fill="url(#paint23_linear)"/>
<path d="M417.032 270.444C412.895 275.456 408.805 280.514 404.668 285.526C400.996 289.98 397.37 294.482 393.652 298.89C390.212 302.927 386.68 306.918 382.915 310.677C379.196 314.389 375.245 317.869 370.969 320.932C366.739 323.995 362.137 326.593 357.303 328.542C356.699 328.774 356.095 329.006 355.49 329.238C355.351 329.285 355.397 329.517 355.537 329.47C360.464 327.707 365.066 325.248 369.388 322.371C373.711 319.447 377.755 316.06 381.52 312.44C385.378 308.728 388.957 304.783 392.443 300.746C396.115 296.477 399.648 292.115 403.227 287.753C407.364 282.695 411.501 277.683 415.637 272.625C416.149 271.976 416.66 271.372 417.171 270.723C417.311 270.491 417.125 270.305 417.032 270.444Z" fill="white"/>
<g opacity="0.31">
<g opacity="0.31">
<path opacity="0.31" d="M249.838 261.07C249.001 255.502 246.677 250.305 244.074 245.339C242.68 242.741 241.239 240.142 239.798 237.543C238.217 234.713 236.637 231.882 234.964 229.098C231.85 223.761 228.596 218.564 225.203 213.413C221.81 208.262 218.277 203.158 214.605 198.193C210.933 193.227 207.168 188.308 203.217 183.529C202.752 182.972 202.287 182.369 201.776 181.812C201.451 181.394 200.753 181.905 201.125 182.322C205.03 187.056 208.841 191.882 212.513 196.8C216.185 201.719 219.718 206.731 223.111 211.835C226.504 216.94 229.804 222.137 232.919 227.427C236.126 232.81 239.194 238.286 242.215 243.762C244.864 248.634 247.421 253.739 248.583 259.168C248.722 259.818 248.862 260.514 248.955 261.163C249.094 261.72 249.884 261.581 249.838 261.07Z" fill="url(#paint24_linear)"/>
</g>
<path opacity="0.31" d="M203.031 184.364C199.545 183.529 196.57 180.93 195.269 177.636C194.757 176.29 194.618 174.573 195.733 173.645C196.57 172.995 197.779 173.088 198.708 173.645C199.638 174.202 200.242 175.083 200.8 175.965C202.427 178.61 203.542 181.626 204.054 184.689" fill="url(#paint25_linear)"/>
<path opacity="0.31" d="M206.703 188.308C205.541 189.654 203.589 190.025 201.823 190.118C200.568 190.165 199.266 190.072 198.151 189.608C196.988 189.097 196.012 188.169 195.733 186.916C195.687 186.731 195.687 186.545 195.733 186.359C195.78 186.174 195.919 186.035 196.059 185.895C196.756 185.292 197.732 185.06 198.615 185.107C199.545 185.153 200.428 185.478 201.265 185.849C203.217 186.638 205.076 187.659 206.796 188.865" fill="url(#paint26_linear)"/>
<path opacity="0.31" d="M212.839 196.986C212.56 197.589 212.002 197.961 211.491 198.332C210.05 199.353 208.469 200.466 206.703 200.42C205.82 200.42 204.937 200.095 204.147 199.724C202.892 199.167 201.59 198.285 201.125 196.986C200.986 196.568 200.939 196.058 201.079 195.64C201.311 195.13 201.823 194.759 202.38 194.619C202.938 194.48 203.496 194.527 204.1 194.619C207.493 195.084 209.631 195.64 212.839 196.986Z" fill="url(#paint27_linear)"/>
<path opacity="0.31" d="M220.322 206.731C220.462 206.917 220.276 207.149 220.136 207.288C218.742 208.634 217.069 209.794 215.209 210.351C213.35 210.954 211.258 210.954 209.446 210.211C208.609 209.886 207.819 209.33 207.54 208.494C207.168 207.427 207.772 206.174 208.702 205.524C209.631 204.875 210.84 204.736 211.956 204.736C215.023 204.782 217.952 205.896 220.787 207.009" fill="url(#paint28_linear)"/>
<path opacity="0.31" d="M227.713 217.543C227.294 218.378 226.504 218.889 225.714 219.399C223.808 220.606 221.717 221.627 219.485 221.905C217.254 222.184 214.837 221.58 213.303 219.91C212.699 219.26 212.234 218.332 212.513 217.45C212.699 216.801 213.257 216.29 213.861 215.965C216.278 214.573 219.3 214.945 222.042 215.641C223.715 216.058 225.389 216.569 227.062 217.218" fill="url(#paint29_linear)"/>
<path opacity="0.31" d="M235.661 231.186C232.221 234.434 227.248 236.105 222.553 235.502C220.74 235.27 218.649 234.481 218.23 232.671C217.952 231.511 218.509 230.304 219.439 229.516C220.322 228.727 221.531 228.355 222.693 228.17C226.83 227.52 230.966 228.912 234.917 230.304" fill="url(#paint30_linear)"/>
<path opacity="0.31" d="M213.35 196.708C212.56 193.831 213.35 190.768 214.233 187.891C214.465 187.195 214.744 186.406 215.442 186.22C216.046 186.035 216.743 186.452 217.161 186.916C217.905 187.798 218.184 188.958 218.091 190.118C217.998 191.232 217.58 192.346 217.022 193.32C216.139 194.898 214.93 196.29 213.396 197.218" fill="url(#paint31_linear)"/>
<path opacity="0.31" d="M206.471 188.123C205.681 185.246 206.471 182.183 207.354 179.306C207.586 178.61 207.865 177.821 208.562 177.635C209.167 177.45 209.864 177.867 210.282 178.332C211.026 179.213 211.305 180.373 211.212 181.533C211.119 182.694 210.701 183.761 210.143 184.735C209.26 186.313 208.051 187.705 206.517 188.633" fill="url(#paint32_linear)"/>
<path opacity="0.31" d="M220.183 206.638C219.021 203.019 219.718 198.842 221.903 195.733C222.414 195.037 223.018 194.341 223.901 194.248C224.645 194.155 225.342 194.573 225.807 195.176C226.225 195.78 226.411 196.522 226.458 197.265C226.551 198.935 226.04 200.652 225.203 202.091C224.366 203.576 223.158 204.828 221.949 205.942C221.438 206.406 220.88 206.87 220.229 206.917" fill="url(#paint33_linear)"/>
<path opacity="0.31" d="M227.155 217.311C226.504 213.831 227.713 210.304 229.107 207.056C229.665 205.803 230.316 204.457 231.617 203.947C233.198 203.343 235.057 204.55 235.661 206.128C236.265 207.705 235.8 209.562 235.01 211.047C233.523 213.877 230.827 216.012 227.899 217.265" fill="url(#paint34_linear)"/>
<path opacity="0.31" d="M234.964 230.444C234.499 227.799 235.243 225.061 236.498 222.648C237.753 220.281 239.519 218.193 241.285 216.151C242.122 215.177 243.191 214.063 244.493 214.156C245.376 214.202 246.166 214.852 246.584 215.641C247.003 216.43 247.095 217.358 247.095 218.239C247.049 222.88 243.935 227.102 239.891 229.376C238.171 230.351 236.126 231 234.22 230.536" fill="url(#paint35_linear)"/>
<path opacity="0.31" d="M244.678 246.639C244.911 246.824 244.678 247.149 244.446 247.288C240.728 250.258 235.475 251.186 230.92 249.794C230.037 249.516 229.2 249.144 228.503 248.541C227.434 247.613 226.876 246.267 226.551 244.875C226.458 244.55 226.411 244.226 226.504 243.901C226.644 243.483 227.015 243.205 227.387 243.019C230.037 241.534 233.337 241.441 236.265 242.23C239.194 243.019 241.843 244.69 244.167 246.639" fill="url(#paint36_linear)"/>
<path opacity="0.31" d="M244.539 247.474C243.981 245.386 244.167 243.158 244.771 241.07C245.376 238.982 246.398 237.033 247.421 235.13C248.165 233.738 249.001 232.3 250.303 231.372C251.604 230.444 253.556 230.258 254.718 231.372C255.88 232.439 255.834 234.249 255.602 235.78C255.09 238.796 253.882 241.72 251.79 243.947C249.698 246.175 246.631 247.567 243.563 247.242" fill="url(#paint37_linear)"/>
</g>
<path d="M309.567 202.508C323.325 203.111 338.246 207.241 348.286 216.615C349.122 217.404 349.959 218.286 350.331 219.399C350.889 221.023 350.331 222.74 349.82 224.365C343.87 243.066 343.545 263.53 348.89 282.416C350.284 287.382 352.097 292.254 352.562 297.359C353.027 302.463 352.004 308.032 348.472 311.744C346.938 313.368 345.032 314.528 343.08 315.549C332.064 321.118 319.142 320.886 306.778 320.375C299.155 320.05 291.485 319.679 284.188 317.591C276.89 315.503 269.825 311.605 265.363 305.433C260.761 299.075 259.32 291.001 258.762 283.159C257.414 265.386 259.832 247.613 260.203 229.794C260.296 224.597 260.203 219.26 258.158 214.527C267.547 208.03 278.796 204.086 289.998 201.859C292.415 205.06 295.762 206.499 299.759 206.731C303.757 206.963 306.824 205.432 309.567 202.508Z" fill="url(#paint38_linear)"/>
<path d="M334.992 251.186C334.992 251.186 339.733 269.794 338.618 279.771C337.456 289.748 332.993 294.806 319.979 299.215L356.606 292.161L353.073 274.435L334.992 251.186Z" fill="url(#paint39_linear)"/>
<path d="M263.922 211C268.152 229.887 264.526 252.114 259.785 270.908C258.391 276.477 258.67 282.602 260.668 285.433C262.76 288.356 266.293 290.12 269.593 291.604C277.169 295.085 282.468 299.215 288.232 305.247C290.556 307.66 292.694 310.352 293.67 313.554C294.646 316.756 294.367 320.468 292.229 323.067C290.184 325.526 286.837 326.547 283.63 326.547C280.423 326.547 277.309 325.665 274.194 324.923C268.988 323.716 263.643 322.927 258.298 322.556C253.65 322.231 248.955 322.231 244.493 320.932C238.171 319.076 232.733 314.575 229.386 308.913C226.04 303.206 224.785 296.43 225.435 289.887C225.807 286.361 226.69 282.927 227.62 279.539C231.431 265.432 236.684 253.042 241.471 239.214C243.424 233.553 247.049 227.195 250.489 222.276C254.021 217.358 258.019 212.021 263.922 211Z" fill="url(#paint40_linear)"/>
<path d="M265.456 246.964C268.012 235.316 267.129 222.416 264.387 210.907C264.247 210.304 263.318 210.583 263.457 211.139C265.409 219.353 266.153 227.799 265.735 236.198C265.549 239.678 265.27 243.251 264.526 246.685C264.433 247.288 265.316 247.52 265.456 246.964Z" fill="white"/>
<path d="M300.317 313.646C300.317 313.646 287.674 310.491 282.933 313.229C278.192 315.92 271.034 319.865 271.219 324.923V326.964C271.219 326.964 305.151 327.939 307.893 324.923" fill="#FFC7AE"/>
<path d="M338.106 209.608C344.335 210.304 351.121 217.543 355.397 223.808C359.674 230.072 362.602 237.126 365.484 244.133C370.876 257.265 376.314 270.351 381.706 283.484C383.379 287.567 385.053 291.651 385.889 295.967C386.587 299.54 386.633 303.252 386.075 306.872C385.61 309.841 384.727 312.765 382.868 315.131C380.265 318.473 376.128 320.143 372.177 321.628C363.811 324.784 355.258 327.753 346.334 328.403C342.801 328.635 339.315 328.496 335.782 328.403C326.068 328.032 316.307 327.707 306.731 325.944C306.034 325.804 305.337 325.665 304.779 325.248C304.221 324.784 303.896 324.134 303.571 323.484C302.595 321.396 301.665 319.308 300.689 317.173C300.131 316.013 299.62 314.76 299.713 313.461C299.852 311.744 301.107 310.352 302.409 309.145C305.755 306.036 309.66 303.484 313.843 301.581C322.442 297.73 332.296 296.755 340.384 291.883C341.36 291.28 342.336 290.63 343.126 289.795C346.101 286.639 345.915 281.535 344.242 277.544C342.569 273.553 341.407 269.702 339.733 265.665C336.061 256.708 334.248 250.862 334.062 243.251C333.784 232.3 334.62 219.91 338.106 209.608Z" fill="url(#paint41_linear)"/>
<path d="M385.471 305.665C385.006 308.635 384.123 311.605 382.264 313.925C379.661 317.266 375.524 318.937 371.573 320.422C363.206 323.577 354.654 326.547 345.729 327.15C342.197 327.382 338.711 327.243 335.178 327.15H334.853C344.149 326.454 353.073 323.391 361.812 320.05C365.995 318.473 370.318 316.709 373.06 313.182C375.013 310.723 375.942 307.614 376.454 304.505C377.058 300.7 376.965 296.802 376.268 293.043C375.385 288.495 373.618 284.18 371.852 279.911C366.181 266.129 360.464 252.346 354.793 238.564C351.772 231.186 348.658 223.761 344.149 217.218C342.243 214.481 339.873 211.511 337.316 209.005C337.363 208.819 337.409 208.634 337.502 208.448C343.731 209.144 350.517 216.383 354.793 222.648C359.07 228.912 361.998 235.966 364.88 242.973C370.272 256.059 375.71 269.191 381.102 282.324C382.775 286.407 384.448 290.491 385.285 294.806C385.936 298.379 386.029 302.092 385.471 305.665Z" fill="url(#paint42_linear)"/>
<path d="M305.29 306.872C306.406 308.403 307.289 310.166 308.079 311.93C310.078 316.431 311.24 321.303 311.565 326.222C311.612 326.825 312.588 326.825 312.542 326.222C312.17 321.257 311.054 316.384 309.102 311.837C308.312 309.981 307.382 308.032 306.127 306.407C305.755 305.897 304.919 306.361 305.29 306.872Z" fill="white"/>
<path d="M334.155 247.474C333.365 234.991 334.341 221.534 338.571 209.747C338.804 209.19 337.874 208.912 337.642 209.515C333.365 221.395 332.389 234.945 333.179 247.52C333.226 248.077 334.155 248.077 334.155 247.474Z" fill="white"/>
<path d="M473.181 338.194H28.8185C26.6339 338.194 24.8676 336.431 24.8676 334.25V333.925C24.8676 331.744 26.6339 329.981 28.8185 329.981H473.181C475.366 329.981 477.132 331.744 477.132 333.925V334.25C477.132 336.431 475.366 338.194 473.181 338.194Z" fill="#345D95"/>
<path d="M474.715 330.074C476.249 330.63 477.318 332.069 477.318 333.786V334.111C477.318 336.292 475.552 338.055 473.367 338.055H174.677L474.715 330.074Z" fill="#1C3E66"/>
<path d="M358.465 329.934H205.495C205.123 329.934 204.844 329.656 204.844 329.285V326.779C204.844 326.408 205.123 326.129 205.495 326.129H358.465C358.837 326.129 359.116 326.408 359.116 326.779V329.285C359.116 329.656 358.837 329.934 358.465 329.934Z" fill="#26476D"/>
<path d="M272.521 329.934H140.932L134.564 238.704H263.55L272.521 329.934Z" fill="#26476D"/>
<path d="M268.059 329.934H136.423L130.102 238.704H259.088L268.059 329.934Z" fill="#C5E1F9"/>
<path opacity="0.27" d="M199.08 292.161C203.419 292.161 206.936 288.65 206.936 284.319C206.936 279.988 203.419 276.477 199.08 276.477C194.742 276.477 191.225 279.988 191.225 284.319C191.225 288.65 194.742 292.161 199.08 292.161Z" fill="#26476D"/>
<path opacity="0.07" d="M131.171 254.481L136.423 329.842H268.059L266.292 312.022C197.035 303.113 149.299 269.377 131.171 254.481Z" fill="#26476D"/>
<path d="M300.735 317.034L279.586 326.129H303.849L306.22 325.712C306.22 325.712 304.918 325.619 304.221 324.876C303.524 324.087 300.735 317.034 300.735 317.034Z" fill="url(#paint43_linear)"/>
<path d="M76.6014 287.939L79.5762 277.59L79.7621 276.941L79.9016 276.337C79.9945 275.92 80.0875 275.502 80.134 275.085C80.2269 274.249 80.2734 273.414 80.227 272.579C80.134 270.908 79.6692 269.238 78.9255 267.753C78.7395 267.381 78.5536 267.01 78.3212 266.639C78.2282 266.453 78.0888 266.268 77.9958 266.129L77.624 265.572L77.2521 264.968C77.1127 264.783 77.0197 264.551 76.8803 264.365C76.6479 263.948 76.4619 263.53 76.2295 263.066C75.4858 261.302 75.114 259.446 75.0675 257.544C75.0675 255.641 75.3929 253.739 76.0901 252.022C76.276 251.604 76.4619 251.14 76.6944 250.722L77.0197 250.119L77.3916 249.516C77.9029 248.727 78.4142 248.031 78.9255 247.288L81.9932 242.834C83.0158 241.395 83.7131 239.817 84.1314 238.1C84.9216 234.713 84.4103 231 82.551 227.984C81.6214 226.453 80.5523 225.014 79.6227 223.483C79.3903 223.112 79.2044 222.694 78.9719 222.276C78.786 221.859 78.6001 221.441 78.4607 221.024C78.1353 220.188 77.9494 219.26 77.8099 218.379C77.531 216.569 77.624 214.759 78.0888 212.996C78.5071 211.232 79.3438 209.608 80.3199 208.123C79.3903 209.655 78.5536 211.279 78.2282 213.042C77.8564 214.805 77.8099 216.615 78.1353 218.379C78.3212 219.26 78.5071 220.095 78.879 220.931C79.0184 221.348 79.2508 221.72 79.3903 222.137C79.6227 222.509 79.8086 222.926 80.041 223.297C81.0171 224.782 82.0862 226.221 83.1088 227.752C85.1075 230.815 85.8512 234.713 85.061 238.379C84.6892 240.189 83.9455 241.952 82.8764 243.483L79.9481 248.031C79.4832 248.773 78.9719 249.562 78.5071 250.305L78.1818 250.861L77.9029 251.418C77.717 251.79 77.5775 252.207 77.3916 252.578C76.7873 254.203 76.5549 255.92 76.6014 257.59C76.6944 259.307 77.0662 260.978 77.8099 262.509C77.9958 262.88 78.1818 263.298 78.4142 263.623C78.5071 263.808 78.6466 263.994 78.7395 264.18L79.1114 264.69L79.4832 265.247C79.6227 265.432 79.7621 265.618 79.9016 265.85C80.1805 266.268 80.4129 266.685 80.6453 267.103C81.5284 268.82 82.0862 270.676 82.2721 272.579C82.3651 273.553 82.3651 274.481 82.2256 275.456C82.1792 275.92 82.0862 276.43 81.9932 276.894L81.8538 277.59L81.6679 278.24L78.9719 288.681L76.6014 287.939Z" fill="url(#paint44_linear)"/>
<path d="M90.4995 287.938L94.0786 275.456L94.311 274.667L94.4969 273.924C94.5899 273.414 94.6828 272.95 94.7758 272.439C94.9152 271.419 94.9617 270.398 94.8688 269.377C94.7293 267.335 94.1715 265.34 93.2884 263.483C93.056 263.019 92.8236 262.555 92.5447 262.138C92.4052 261.906 92.2658 261.72 92.1263 261.488L91.6615 260.792L91.1967 260.096C91.0573 259.864 90.9178 259.585 90.7784 259.353C90.4995 258.889 90.2671 258.333 90.0347 257.822C89.1515 255.734 88.6867 253.46 88.5938 251.233C88.5938 248.959 88.9656 246.731 89.8023 244.643C90.0347 244.133 90.2206 243.622 90.4995 243.112L90.8713 242.369L91.3362 241.673C91.9404 240.745 92.5447 239.864 93.1489 238.982L96.821 233.599C98.076 231.882 98.9126 229.933 99.4239 227.891C100.4 223.808 99.7028 219.307 97.4717 215.687C96.3562 213.877 95.0547 212.114 93.8926 210.258C93.5673 209.794 93.3813 209.283 93.1025 208.819C92.9165 208.309 92.6376 207.845 92.4982 207.288C92.1263 206.267 91.8939 205.2 91.708 204.132C91.5686 203.065 91.4756 201.951 91.5221 200.884C91.5686 199.817 91.708 198.703 91.9869 197.682C92.4517 195.548 93.4743 193.599 94.6828 191.789C93.5673 193.645 92.5912 195.594 92.1263 197.729C91.8939 198.796 91.801 199.863 91.7545 200.93C91.7545 201.998 91.801 203.065 91.9869 204.132C92.1728 205.2 92.4517 206.221 92.87 207.241C93.056 207.752 93.2884 208.216 93.5208 208.726C93.7997 209.19 94.0321 209.701 94.311 210.119C95.473 211.928 96.7745 213.645 97.983 215.455C100.4 219.167 101.237 223.854 100.307 228.17C99.8423 230.351 98.9591 232.439 97.7041 234.249L94.1715 239.678C93.6138 240.606 92.963 241.488 92.4052 242.416L91.9869 243.066L91.6615 243.762C91.4291 244.226 91.2432 244.736 91.0573 245.2C90.3136 247.149 90.0347 249.237 90.0812 251.325C90.1741 253.414 90.6389 255.455 91.5221 257.312C91.7545 257.776 91.9404 258.24 92.2193 258.657C92.3587 258.889 92.4982 259.121 92.6376 259.307L93.1025 259.957L93.5673 260.606C93.7067 260.838 93.8926 261.07 94.0321 261.302C94.3575 261.766 94.6363 262.277 94.9152 262.787C95.9378 264.829 96.635 267.057 96.821 269.33C96.9139 270.49 96.9139 271.604 96.7745 272.764C96.728 273.321 96.635 273.878 96.4956 274.481L96.3097 275.317L96.1238 276.105L92.8236 288.681L90.4995 287.938Z" fill="url(#paint45_linear)"/>
<path d="M211.537 149.747H164.359C161.198 149.747 158.641 147.194 158.641 144.039V116.243C158.641 113.087 161.198 110.535 164.359 110.535H211.537C214.698 110.535 217.255 113.087 217.255 116.243V144.039C217.255 147.194 214.698 149.747 211.537 149.747Z" stroke="white" stroke-width="0.75" stroke-miterlimit="10" stroke-dasharray="6.06 6.06"/>
<path d="M214.466 112.066V140.698C214.466 143.946 211.816 146.591 208.562 146.591H159.989C156.736 146.591 154.086 143.946 154.086 140.698V112.066C154.086 108.818 156.736 106.173 159.989 106.173H208.609C211.863 106.173 214.466 108.818 214.466 112.066Z" fill="white"/>
<path d="M205.169 146.591H159.943C156.689 146.591 154.04 143.946 154.04 140.698V112.066C154.04 108.818 156.689 106.173 159.943 106.173H167.147L205.169 146.591Z" fill="url(#paint46_linear)"/>
<path d="M196.524 126.544C192.294 124.735 190.621 129.375 190.621 129.375C188.808 131.788 183.276 128.308 183.276 128.308C183.276 128.308 177.652 124.92 179.047 122.229C179.047 122.229 182.44 118.656 178.954 115.686C175.468 112.716 172.121 114.015 170.308 118.052C170.308 118.052 167.938 123.714 181.278 131.927C194.99 139.909 198.383 135.315 198.383 135.315C201.079 131.834 200.754 128.308 196.524 126.544Z" fill="url(#paint47_linear)"/>
<path d="M275.496 98.5627H241.936C239.705 98.5627 237.892 96.7529 237.892 94.5255V74.7573C237.892 72.5299 239.705 70.7201 241.936 70.7201H275.496C277.727 70.7201 279.54 72.5299 279.54 74.7573V94.5255C279.586 96.7529 277.727 98.5627 275.496 98.5627Z" stroke="white" stroke-width="0.75" stroke-miterlimit="10" stroke-dasharray="5.92 5.92"/>
<path d="M277.587 71.741V92.1124C277.587 94.4326 275.728 96.2888 273.404 96.2888H238.822C236.498 96.2888 234.638 94.4326 234.638 92.1124V71.741C234.638 69.4207 236.498 67.5646 238.822 67.5646H273.404C275.728 67.5646 277.587 69.4207 277.587 71.741Z" fill="white"/>
<path opacity="0.3" d="M270.987 96.2888H238.822C236.498 96.2888 234.638 94.4326 234.638 92.1124V71.741C234.638 69.4207 236.498 67.5646 238.822 67.5646H243.935L270.987 96.2888Z" fill="url(#paint48_linear)"/>
<path d="M271.87 78.7016H241.239C240.542 78.7016 239.984 78.1448 239.984 77.4487C239.984 76.7527 240.542 76.1958 241.239 76.1958H271.87C272.567 76.1958 273.125 76.7527 273.125 77.4487C273.125 78.1448 272.567 78.7016 271.87 78.7016Z" fill="url(#paint49_linear)"/>
<path d="M271.87 83.7597H241.239C240.542 83.7597 239.984 83.2029 239.984 82.5068C239.984 81.8108 240.542 81.2539 241.239 81.2539H271.87C272.567 81.2539 273.125 81.8108 273.125 82.5068C273.125 83.2029 272.567 83.7597 271.87 83.7597Z" fill="url(#paint50_linear)"/>
<path d="M271.87 88.8642H241.239C240.542 88.8642 239.984 88.3074 239.984 87.6113C239.984 86.9153 240.542 86.3584 241.239 86.3584H271.87C272.567 86.3584 273.125 86.9153 273.125 87.6113C273.125 88.3074 272.567 88.8642 271.87 88.8642Z" fill="url(#paint51_linear)"/>
<path d="M397.138 183.714H374.316C372.782 183.714 371.527 182.462 371.527 180.93V167.473C371.527 165.942 372.782 164.689 374.316 164.689H397.138C398.672 164.689 399.927 165.942 399.927 167.473V180.93C399.88 182.508 398.672 183.714 397.138 183.714Z" stroke="white" stroke-width="0.75" stroke-miterlimit="10" stroke-dasharray="6.05 6.05"/>
<path d="M398.579 165.478V179.353C398.579 180.93 397.324 182.183 395.743 182.183H372.224C370.643 182.183 369.388 180.93 369.388 179.353V165.478C369.388 163.9 370.643 162.647 372.224 162.647H395.743C397.277 162.647 398.579 163.9 398.579 165.478Z" fill="white"/>
<g opacity="0.21">
<path opacity="0.21" d="M385.564 168.401C386.029 168.633 386.401 168.912 386.679 169.329C386.958 169.7 387.098 170.164 387.098 170.628C387.098 171 387.051 171.325 386.912 171.557C386.772 171.789 386.633 172.067 386.447 172.253C386.261 172.438 386.029 172.67 385.75 172.902C385.378 173.227 385.053 173.552 384.867 173.784C384.681 174.062 384.588 174.387 384.588 174.758V174.944C384.588 175.037 384.541 175.13 384.495 175.223C384.402 175.315 384.355 175.315 384.216 175.315H383.705C383.612 175.315 383.519 175.269 383.426 175.223C383.333 175.13 383.333 175.083 383.333 174.944V174.666C383.333 174.294 383.379 173.97 383.519 173.738C383.658 173.459 383.798 173.227 383.983 173.041C384.169 172.856 384.402 172.624 384.681 172.345C385.053 172.021 385.331 171.742 385.517 171.51C385.703 171.278 385.796 170.953 385.796 170.628C385.796 170.211 385.61 169.84 385.238 169.608C384.867 169.376 384.448 169.236 383.937 169.236C383.472 169.236 383.054 169.376 382.729 169.608C382.403 169.84 382.171 170.211 382.031 170.721C382.031 170.814 381.985 170.86 381.892 170.953C381.845 171 381.752 171.046 381.659 171.046H381.148C381.055 171.046 381.009 171 380.916 170.953C380.869 170.907 380.823 170.814 380.823 170.721C380.869 170.304 380.962 169.886 381.241 169.468C381.474 169.051 381.845 168.726 382.31 168.494C382.775 168.215 383.333 168.123 383.983 168.123C384.541 168.076 385.099 168.215 385.564 168.401ZM384.588 177.543C384.495 177.636 384.448 177.636 384.309 177.636H383.519C383.426 177.636 383.333 177.589 383.24 177.543C383.147 177.45 383.147 177.403 383.147 177.264V176.475C383.147 176.383 383.193 176.29 383.24 176.197C383.333 176.104 383.379 176.104 383.519 176.104H384.309C384.402 176.104 384.495 176.151 384.588 176.197C384.681 176.29 384.681 176.336 384.681 176.475V177.264C384.681 177.403 384.681 177.496 384.588 177.543Z" fill="#45BDFF"/>
</g>
<path d="M274.287 149.654L279.586 161.023" stroke="url(#paint52_linear)" stroke-miterlimit="10"/>
<path d="M275.589 148.03L280.841 159.445" stroke="url(#paint53_linear)" stroke-width="3" stroke-miterlimit="10"/>
<path d="M299.48 148.401L304.733 159.816" stroke="url(#paint54_linear)" stroke-width="3" stroke-miterlimit="10"/>
<path d="M298.039 150.118L303.292 161.487" stroke="url(#paint55_linear)" stroke-miterlimit="10"/>
<defs>
<linearGradient id="paint0_linear" x1="93.8153" y1="209.593" x2="465.319" y2="209.593" gradientUnits="userSpaceOnUse">
<stop stop-color="#262F42"/>
<stop offset="0.1893" stop-color="#2E394A"/>
<stop offset="0.6218" stop-color="#3A4958"/>
<stop offset="1" stop-color="#3E4F5C"/>
</linearGradient>
<linearGradient id="paint1_linear" x1="377.917" y1="227.676" x2="411.126" y2="278.268" gradientUnits="userSpaceOnUse">
<stop stop-color="#262F42"/>
<stop offset="0.1893" stop-color="#2E394A"/>
<stop offset="0.6218" stop-color="#3A4958"/>
<stop offset="1" stop-color="#3E4F5C"/>
</linearGradient>
<linearGradient id="paint2_linear" x1="418.081" y1="192.157" x2="424.313" y2="201.652" gradientUnits="userSpaceOnUse">
<stop stop-color="#262F42"/>
<stop offset="0.1893" stop-color="#2E394A"/>
<stop offset="0.6218" stop-color="#3A4958"/>
<stop offset="1" stop-color="#3E4F5C"/>
</linearGradient>
<linearGradient id="paint3_linear" x1="409.566" y1="198.891" x2="417.14" y2="210.43" gradientUnits="userSpaceOnUse">
<stop stop-color="#262F42"/>
<stop offset="0.1893" stop-color="#2E394A"/>
<stop offset="0.6218" stop-color="#3A4958"/>
<stop offset="1" stop-color="#3E4F5C"/>
</linearGradient>
<linearGradient id="paint4_linear" x1="402.879" y1="211.124" x2="410.97" y2="223.449" gradientUnits="userSpaceOnUse">
<stop stop-color="#262F42"/>
<stop offset="0.1893" stop-color="#2E394A"/>
<stop offset="0.6218" stop-color="#3A4958"/>
<stop offset="1" stop-color="#3E4F5C"/>
</linearGradient>
<linearGradient id="paint5_linear" x1="396.624" y1="224.828" x2="405.736" y2="238.709" gradientUnits="userSpaceOnUse">
<stop stop-color="#262F42"/>
<stop offset="0.1893" stop-color="#2E394A"/>
<stop offset="0.6218" stop-color="#3A4958"/>
<stop offset="1" stop-color="#3E4F5C"/>
</linearGradient>
<linearGradient id="paint6_linear" x1="388.946" y1="237.356" x2="399.338" y2="253.188" gradientUnits="userSpaceOnUse">
<stop stop-color="#262F42"/>
<stop offset="0.1893" stop-color="#2E394A"/>
<stop offset="0.6218" stop-color="#3A4958"/>
<stop offset="1" stop-color="#3E4F5C"/>
</linearGradient>
<linearGradient id="paint7_linear" x1="378.979" y1="252.368" x2="390.897" y2="270.524" gradientUnits="userSpaceOnUse">
<stop stop-color="#262F42"/>
<stop offset="0.1893" stop-color="#2E394A"/>
<stop offset="0.6218" stop-color="#3A4958"/>
<stop offset="1" stop-color="#3E4F5C"/>
</linearGradient>
<linearGradient id="paint8_linear" x1="417.18" y1="219.68" x2="420.63" y2="224.936" gradientUnits="userSpaceOnUse">
<stop stop-color="#262F42"/>
<stop offset="0.1893" stop-color="#2E394A"/>
<stop offset="0.6218" stop-color="#3A4958"/>
<stop offset="1" stop-color="#3E4F5C"/>
</linearGradient>
<linearGradient id="paint9_linear" x1="421.411" y1="206.674" x2="424.862" y2="211.931" gradientUnits="userSpaceOnUse">
<stop stop-color="#262F42"/>
<stop offset="0.1893" stop-color="#2E394A"/>
<stop offset="0.6218" stop-color="#3A4958"/>
<stop offset="1" stop-color="#3E4F5C"/>
</linearGradient>
<linearGradient id="paint10_linear" x1="412.431" y1="232.584" x2="417.056" y2="239.631" gradientUnits="userSpaceOnUse">
<stop stop-color="#262F42"/>
<stop offset="0.1893" stop-color="#2E394A"/>
<stop offset="0.6218" stop-color="#3A4958"/>
<stop offset="1" stop-color="#3E4F5C"/>
</linearGradient>
<linearGradient id="paint11_linear" x1="407.068" y1="247.023" x2="413.16" y2="256.304" gradientUnits="userSpaceOnUse">
<stop stop-color="#262F42"/>
<stop offset="0.1893" stop-color="#2E394A"/>
<stop offset="0.6218" stop-color="#3A4958"/>
<stop offset="1" stop-color="#3E4F5C"/>
</linearGradient>
<linearGradient id="paint12_linear" x1="399.691" y1="262.711" x2="408.446" y2="276.049" gradientUnits="userSpaceOnUse">
<stop stop-color="#262F42"/>
<stop offset="0.1893" stop-color="#2E394A"/>
<stop offset="0.6218" stop-color="#3A4958"/>
<stop offset="1" stop-color="#3E4F5C"/>
</linearGradient>
<linearGradient id="paint13_linear" x1="369.784" y1="270.752" x2="382.246" y2="289.737" gradientUnits="userSpaceOnUse">
<stop stop-color="#262F42"/>
<stop offset="0.1893" stop-color="#2E394A"/>
<stop offset="0.6218" stop-color="#3A4958"/>
<stop offset="1" stop-color="#3E4F5C"/>
</linearGradient>
<linearGradient id="paint14_linear" x1="388.786" y1="283.623" x2="397.091" y2="296.277" gradientUnits="userSpaceOnUse">
<stop stop-color="#262F42"/>
<stop offset="0.1893" stop-color="#2E394A"/>
<stop offset="0.6218" stop-color="#3A4958"/>
<stop offset="1" stop-color="#3E4F5C"/>
</linearGradient>
<linearGradient id="paint15_linear" x1="262.136" y1="158.638" x2="283.155" y2="158.638" gradientUnits="userSpaceOnUse">
<stop stop-color="#498D3E"/>
<stop offset="0.2225" stop-color="#60A345"/>
<stop offset="0.5033" stop-color="#76B74D"/>
<stop offset="0.7685" stop-color="#82C351"/>
<stop offset="1" stop-color="#86C753"/>
</linearGradient>
<linearGradient id="paint16_linear" x1="291.186" y1="187.849" x2="303.63" y2="187.849" gradientUnits="userSpaceOnUse">
<stop stop-color="#E8A17E"/>
<stop offset="0.294" stop-color="#ECA887"/>
<stop offset="0.779" stop-color="#F8BCA0"/>
<stop offset="1" stop-color="#FFC7AE"/>
</linearGradient>
<linearGradient id="paint17_linear" x1="282.312" y1="187.08" x2="282.312" y2="137.873" gradientUnits="userSpaceOnUse">
<stop stop-color="#E8A17E"/>
<stop offset="0.1734" stop-color="#F0AF8F"/>
<stop offset="0.417" stop-color="#F9BCA0"/>
<stop offset="0.6811" stop-color="#FDC4AB"/>
<stop offset="1" stop-color="#FFC7AE"/>
</linearGradient>
<linearGradient id="paint18_linear" x1="320.604" y1="190.411" x2="320.604" y2="112.565" gradientUnits="userSpaceOnUse">
<stop stop-color="white" stop-opacity="0"/>
<stop offset="0.8555" stop-color="white" stop-opacity="0.8555"/>
<stop offset="1" stop-color="white"/>
</linearGradient>
<linearGradient id="paint19_linear" x1="314.47" y1="160.471" x2="334.439" y2="160.471" gradientUnits="userSpaceOnUse">
<stop stop-color="#498D3E"/>
<stop offset="0.2225" stop-color="#60A345"/>
<stop offset="0.5033" stop-color="#76B74D"/>
<stop offset="0.7685" stop-color="#82C351"/>
<stop offset="1" stop-color="#86C753"/>
</linearGradient>
<linearGradient id="paint20_linear" x1="327.846" y1="172.864" x2="327.846" y2="148.075" gradientUnits="userSpaceOnUse">
<stop stop-color="white" stop-opacity="0"/>
<stop offset="1" stop-color="white"/>
</linearGradient>
<linearGradient id="paint21_linear" x1="368.915" y1="331.721" x2="368.915" y2="261.464" gradientUnits="userSpaceOnUse">
<stop stop-color="white"/>
<stop offset="0.017756" stop-color="white" stop-opacity="0.9822"/>
<stop offset="1" stop-color="white" stop-opacity="0"/>
</linearGradient>
<linearGradient id="paint22_linear" x1="386.473" y1="332.246" x2="386.473" y2="315.369" gradientUnits="userSpaceOnUse">
<stop stop-color="white"/>
<stop offset="0.017756" stop-color="white" stop-opacity="0.9822"/>
<stop offset="1" stop-color="white" stop-opacity="0"/>
</linearGradient>
<linearGradient id="paint23_linear" x1="386.671" y1="327.29" x2="386.671" y2="274.455" gradientUnits="userSpaceOnUse">
<stop stop-color="white"/>
<stop offset="0.017756" stop-color="white" stop-opacity="0.9822"/>
<stop offset="1" stop-color="white" stop-opacity="0"/>
</linearGradient>
<linearGradient id="paint24_linear" x1="201.061" y1="221.594" x2="249.829" y2="221.594" gradientUnits="userSpaceOnUse">
<stop stop-color="#262F42"/>
<stop offset="0.1893" stop-color="#2E394A"/>
<stop offset="0.6218" stop-color="#3A4958"/>
<stop offset="1" stop-color="#3E4F5C"/>
</linearGradient>
<linearGradient id="paint25_linear" x1="194.893" y1="178.92" x2="204.046" y2="178.92" gradientUnits="userSpaceOnUse">
<stop stop-color="#262F42"/>
<stop offset="0.1893" stop-color="#2E394A"/>
<stop offset="0.6218" stop-color="#3A4958"/>
<stop offset="1" stop-color="#3E4F5C"/>
</linearGradient>
<linearGradient id="paint26_linear" x1="195.665" y1="187.616" x2="206.788" y2="187.616" gradientUnits="userSpaceOnUse">
<stop stop-color="#262F42"/>
<stop offset="0.1893" stop-color="#2E394A"/>
<stop offset="0.6218" stop-color="#3A4958"/>
<stop offset="1" stop-color="#3E4F5C"/>
</linearGradient>
<linearGradient id="paint27_linear" x1="200.949" y1="197.514" x2="212.83" y2="197.514" gradientUnits="userSpaceOnUse">
<stop stop-color="#262F42"/>
<stop offset="0.1893" stop-color="#2E394A"/>
<stop offset="0.6218" stop-color="#3A4958"/>
<stop offset="1" stop-color="#3E4F5C"/>
</linearGradient>
<linearGradient id="paint28_linear" x1="207.415" y1="207.774" x2="220.795" y2="207.774" gradientUnits="userSpaceOnUse">
<stop stop-color="#262F42"/>
<stop offset="0.1893" stop-color="#2E394A"/>
<stop offset="0.6218" stop-color="#3A4958"/>
<stop offset="1" stop-color="#3E4F5C"/>
</linearGradient>
<linearGradient id="paint29_linear" x1="212.46" y1="218.469" x2="227.72" y2="218.469" gradientUnits="userSpaceOnUse">
<stop stop-color="#262F42"/>
<stop offset="0.1893" stop-color="#2E394A"/>
<stop offset="0.6218" stop-color="#3A4958"/>
<stop offset="1" stop-color="#3E4F5C"/>
</linearGradient>
<linearGradient id="paint30_linear" x1="218.166" y1="231.8" x2="235.667" y2="231.8" gradientUnits="userSpaceOnUse">
<stop stop-color="#262F42"/>
<stop offset="0.1893" stop-color="#2E394A"/>
<stop offset="0.6218" stop-color="#3A4958"/>
<stop offset="1" stop-color="#3E4F5C"/>
</linearGradient>
<linearGradient id="paint31_linear" x1="213.037" y1="191.696" x2="218.103" y2="191.696" gradientUnits="userSpaceOnUse">
<stop stop-color="#262F42"/>
<stop offset="0.1893" stop-color="#2E394A"/>
<stop offset="0.6218" stop-color="#3A4958"/>
<stop offset="1" stop-color="#3E4F5C"/>
</linearGradient>
<linearGradient id="paint32_linear" x1="206.146" y1="183.104" x2="211.213" y2="183.104" gradientUnits="userSpaceOnUse">
<stop stop-color="#262F42"/>
<stop offset="0.1893" stop-color="#2E394A"/>
<stop offset="0.6218" stop-color="#3A4958"/>
<stop offset="1" stop-color="#3E4F5C"/>
</linearGradient>
<linearGradient id="paint33_linear" x1="219.63" y1="200.591" x2="226.423" y2="200.591" gradientUnits="userSpaceOnUse">
<stop stop-color="#262F42"/>
<stop offset="0.1893" stop-color="#2E394A"/>
<stop offset="0.6218" stop-color="#3A4958"/>
<stop offset="1" stop-color="#3E4F5C"/>
</linearGradient>
<linearGradient id="paint34_linear" x1="226.986" y1="210.576" x2="235.931" y2="210.576" gradientUnits="userSpaceOnUse">
<stop stop-color="#262F42"/>
<stop offset="0.1893" stop-color="#2E394A"/>
<stop offset="0.6218" stop-color="#3A4958"/>
<stop offset="1" stop-color="#3E4F5C"/>
</linearGradient>
<linearGradient id="paint35_linear" x1="234.292" y1="222.467" x2="247.148" y2="222.467" gradientUnits="userSpaceOnUse">
<stop stop-color="#262F42"/>
<stop offset="0.1893" stop-color="#2E394A"/>
<stop offset="0.6218" stop-color="#3A4958"/>
<stop offset="1" stop-color="#3E4F5C"/>
</linearGradient>
<linearGradient id="paint36_linear" x1="226.484" y1="246.103" x2="244.784" y2="246.103" gradientUnits="userSpaceOnUse">
<stop stop-color="#262F42"/>
<stop offset="0.1893" stop-color="#2E394A"/>
<stop offset="0.6218" stop-color="#3A4958"/>
<stop offset="1" stop-color="#3E4F5C"/>
</linearGradient>
<linearGradient id="paint37_linear" x1="243.558" y1="239.036" x2="255.754" y2="239.036" gradientUnits="userSpaceOnUse">
<stop stop-color="#262F42"/>
<stop offset="0.1893" stop-color="#2E394A"/>
<stop offset="0.6218" stop-color="#3A4958"/>
<stop offset="1" stop-color="#3E4F5C"/>
</linearGradient>
<linearGradient id="paint38_linear" x1="258.191" y1="261.267" x2="352.717" y2="261.267" gradientUnits="userSpaceOnUse">
<stop stop-color="#498D3E"/>
<stop offset="0.2225" stop-color="#60A345"/>
<stop offset="0.5033" stop-color="#76B74D"/>
<stop offset="0.7685" stop-color="#82C351"/>
<stop offset="1" stop-color="#86C753"/>
</linearGradient>
<linearGradient id="paint39_linear" x1="319.929" y1="275.194" x2="356.553" y2="275.194" gradientUnits="userSpaceOnUse">
<stop stop-color="#498D3E"/>
<stop offset="1" stop-color="#86C753"/>
</linearGradient>
<linearGradient id="paint40_linear" x1="225.328" y1="268.768" x2="294.25" y2="268.768" gradientUnits="userSpaceOnUse">
<stop stop-color="#498D3E"/>
<stop offset="0.2225" stop-color="#60A345"/>
<stop offset="0.5033" stop-color="#76B74D"/>
<stop offset="0.7685" stop-color="#82C351"/>
<stop offset="1" stop-color="#86C753"/>
</linearGradient>
<linearGradient id="paint41_linear" x1="299.724" y1="269.019" x2="386.458" y2="269.019" gradientUnits="userSpaceOnUse">
<stop stop-color="#498D3E"/>
<stop offset="0.2225" stop-color="#60A345"/>
<stop offset="0.5033" stop-color="#76B74D"/>
<stop offset="0.7685" stop-color="#82C351"/>
<stop offset="1" stop-color="#86C753"/>
</linearGradient>
<linearGradient id="paint42_linear" x1="334.825" y1="267.918" x2="385.834" y2="267.918" gradientUnits="userSpaceOnUse">
<stop stop-color="white" stop-opacity="0"/>
<stop offset="0.8555" stop-color="white" stop-opacity="0.8555"/>
<stop offset="1" stop-color="white"/>
</linearGradient>
<linearGradient id="paint43_linear" x1="292.904" y1="326.116" x2="292.904" y2="317.033" gradientUnits="userSpaceOnUse">
<stop stop-color="#E8A17E"/>
<stop offset="0.1734" stop-color="#F0AF8F"/>
<stop offset="0.417" stop-color="#F9BCA0"/>
<stop offset="0.6811" stop-color="#FDC4AB"/>
<stop offset="1" stop-color="#FFC7AE"/>
</linearGradient>
<linearGradient id="paint44_linear" x1="90.3912" y1="245.606" x2="67.4994" y2="251.288" gradientUnits="userSpaceOnUse">
<stop stop-color="#262F42"/>
<stop offset="0.1893" stop-color="#2E394A"/>
<stop offset="0.6218" stop-color="#3A4958"/>
<stop offset="1" stop-color="#3E4F5C"/>
</linearGradient>
<linearGradient id="paint45_linear" x1="106.678" y1="236.908" x2="79.4887" y2="243.657" gradientUnits="userSpaceOnUse">
<stop stop-color="#262F42"/>
<stop offset="0.1893" stop-color="#2E394A"/>
<stop offset="0.6218" stop-color="#3A4958"/>
<stop offset="1" stop-color="#3E4F5C"/>
</linearGradient>
<linearGradient id="paint46_linear" x1="154.078" y1="126.386" x2="205.175" y2="126.386" gradientUnits="userSpaceOnUse">
<stop stop-color="#C5E1F9"/>
<stop offset="1" stop-color="white"/>
</linearGradient>
<linearGradient id="paint47_linear" x1="170.073" y1="125.312" x2="200.089" y2="125.312" gradientUnits="userSpaceOnUse">
<stop stop-color="#498D3E"/>
<stop offset="0.2225" stop-color="#60A345"/>
<stop offset="0.5033" stop-color="#76B74D"/>
<stop offset="0.7685" stop-color="#82C351"/>
<stop offset="1" stop-color="#86C753"/>
</linearGradient>
<linearGradient id="paint48_linear" x1="234.645" y1="81.9246" x2="270.978" y2="81.9246" gradientUnits="userSpaceOnUse">
<stop stop-color="#C5E1F9"/>
<stop offset="1" stop-color="white"/>
</linearGradient>
<linearGradient id="paint49_linear" x1="240.003" y1="77.4565" x2="273.128" y2="77.4565" gradientUnits="userSpaceOnUse">
<stop stop-color="#C5E1F9"/>
<stop offset="1" stop-color="white"/>
</linearGradient>
<linearGradient id="paint50_linear" x1="240.003" y1="82.5368" x2="273.128" y2="82.5368" gradientUnits="userSpaceOnUse">
<stop stop-color="#C5E1F9"/>
<stop offset="1" stop-color="white"/>
</linearGradient>
<linearGradient id="paint51_linear" x1="240.003" y1="87.6172" x2="273.128" y2="87.6172" gradientUnits="userSpaceOnUse">
<stop stop-color="#C5E1F9"/>
<stop offset="1" stop-color="white"/>
</linearGradient>
<linearGradient id="paint52_linear" x1="276.928" y1="161.137" x2="276.928" y2="149.545" gradientUnits="userSpaceOnUse">
<stop stop-color="white"/>
<stop offset="1" stop-color="white" stop-opacity="0"/>
</linearGradient>
<linearGradient id="paint53_linear" x1="278.211" y1="159.728" x2="278.211" y2="147.747" gradientUnits="userSpaceOnUse">
<stop stop-color="white"/>
<stop offset="1" stop-color="white" stop-opacity="0"/>
</linearGradient>
<linearGradient id="paint54_linear" x1="302.101" y1="160.096" x2="302.101" y2="148.115" gradientUnits="userSpaceOnUse">
<stop stop-color="white"/>
<stop offset="1" stop-color="white" stop-opacity="0"/>
</linearGradient>
<linearGradient id="paint55_linear" x1="300.66" y1="161.6" x2="300.66" y2="150.009" gradientUnits="userSpaceOnUse">
<stop stop-color="white"/>
<stop offset="1" stop-color="white" stop-opacity="0"/>
</linearGradient>
</defs>
</svg>
